<svg xmlns="http://www.w3.org/2000/svg"><defs><font id="icomoon" horiz-adv-x="1024"><font-face units-per-em="1024" ascent="960" descent="-64"/><glyph horiz-adv-x="512"/><glyph unicode="" glyph-name="about" horiz-adv-x="768" d="M384 960c.975.017 2.125.027 3.277.027 111.751 0 202.342-90.592 202.342-202.342s-90.592-202.342-202.342-202.342c-111.751 0-202.342 90.592-202.342 202.342v.026-.001a195.39 195.39 0 0 0-.006 1.594c0 110.272 88.93 199.773 198.984 200.697l.088.001zm95.59-420.198H288.46C128.829 538.328-.008 408.581-.008 248.742c0-.706.003-1.412.008-2.116l-.001.108V9.115l.563-3.738L16.69.257c116.895-39.615 251.576-63.035 391.556-64.252l.585-.004c7.752-.272 16.861-.426 26.007-.426 114.432 0 223.207 24.22 321.479 67.813l-5.061-2.004 15.053 7.731h1.69v237.619c.004.597.007 1.302.007 2.008 0 159.839-128.837 289.586-288.328 291.059l-.14.001zm-51.2-461.108l-41.267-61.44a2.87 2.87 0 0 0-2.404-1.382h-.002a2.92 2.92 0 0 0-2.399 1.37l-.007.012-38.298 61.44a2.742 2.742 0 0 0-.459 1.855l-.001-.012 19.149 297.83a2.92 2.92 0 0 0 2.914 2.765l.058-.001h39.735a2.97 2.97 0 0 0 2.962-2.755l.001-.01 20.48-297.83a2.86 2.86 0 0 0-.365-1.857l.007.013zM409.6 390.298h-47.258l-40.96 86.272-.001.154c0 8.165 6.59 14.79 14.741 14.848h98.667c8.157-.058 14.746-6.683 14.746-14.848l-.001-.162v.008z"/><glyph unicode="" glyph-name="all-1" d="M512 960C229.23 960 0 730.77 0 448S229.23-64 512-64s512 229.23 512 512-229.23 512-512 512zm0-932.608C279.705 27.392 91.392 215.705 91.392 448S279.705 868.608 512 868.608c232.295 0 420.608-188.313 420.608-420.608-.262-232.19-188.418-420.346-420.583-420.608H512zM294.81 571.341H189.44c-9.903-24.959-17.226-53.955-20.642-84.136l-.145-1.573h117.453c1.459 31.667 4.571 61.179 9.302 90.147l-.598-4.438zm-65.178 75.213h81.459c9.467 34.305 20.867 63.842 34.77 91.919l-1.337-2.985c3.482 7.014 7.066 13.67 10.803 20.224-50.942-26.472-93.115-63.354-124.974-108.091l-.722-1.067zM729.19 324.659h105.37c9.835 24.996 17.057 54.027 20.346 84.239l.134 1.521H737.638c-1.364-31.605-4.387-61.152-9.028-90.159l.58 4.399zm8.704 160.973h117.402c-3.423 31.715-10.645 60.728-21.278 88.037l.798-2.328h-105.37c4.064-24.599 7.087-54.128 8.392-84.104l.056-1.605zm-58.419-325.069c-3.482-7.066-7.117-13.722-10.803-20.173 50.965 26.414 93.147 63.288 124.975 108.039l.721 1.068h-81.459c-9.455-34.297-20.856-63.835-34.767-91.908l1.333 2.974zm33.434 485.991h81.459c-32.581 45.804-74.754 82.687-123.771 108.245l-1.925.914c3.686-6.554 7.322-13.21 10.803-20.224 12.566-25.092 23.967-54.63 32.572-85.335l.861-3.599zM311.091 249.498h-81.459c32.549-45.819 74.731-82.693 123.772-108.197l1.924-.91c-3.686 6.451-7.322 13.107-10.803 20.173-12.578 25.099-23.979 54.637-32.576 85.346l-.858 3.588zm-24.985 160.921H168.653c3.562-31.772 10.884-60.786 21.595-88.1l-.808 2.34h105.318c-4.087 24.504-7.18 54.037-8.587 84.01l-.065 1.75zm263.475 370.535v-134.4h84.992c-13.945 54.346-43.939 100.328-84.564 133.903l-.428.344zm-160.154-134.4h84.992V780.8c-41.053-33.918-71.047-79.9-84.607-132.485l-.385-1.761zm-18.534-321.895h103.526v85.76h-113.05c1.529-31.578 4.931-61.064 10.147-89.919l-.624 4.159zm-9.575 160.973h113.101v85.709H370.893c-4.581-24.636-8-54.1-9.509-84.067l-.066-1.642zm188.263 85.709v-85.709h113.05c-1.525 31.554-4.928 61.022-10.146 89.859l.623-4.15H549.582zm0-246.682h103.526c4.577 24.646 7.997 54.127 9.508 84.112l.066 1.648H549.58v-85.76zm-75.162-209.561v134.4h-84.992c13.92-54.371 43.92-100.375 84.563-133.954l.429-.344zm75.162 0c41.089 33.947 71.092 79.989 84.609 132.642l.383 1.758h-84.992V115.2z"/><glyph unicode="" glyph-name="all" d="M512 960C229.23 960 0 730.77 0 448S229.23-64 512-64s512 229.23 512 512-229.23 512-512 512zm0-932.352c-232.295 0-420.608 188.313-420.608 420.608S279.705 868.864 512 868.864c232.295 0 420.608-188.313 420.608-420.608v-.27.014c-.291-232.127-188.461-420.206-420.594-420.352H512zM294.81 571.392H189.44c-9.941-25.059-17.267-54.165-20.647-84.464l-.141-1.552h117.453c1.435 31.741 4.547 61.362 9.3 90.431l-.596-4.415zm-65.178 75.264h81.459c9.474 34.166 20.872 63.581 34.765 91.537l-1.332-2.961c3.482 7.168 7.066 13.824 10.803 20.48-50.922-26.463-93.089-63.307-124.975-107.993l-.721-1.063zM729.19 324.608h105.37c9.873 25.081 17.098 54.204 20.35 84.517l.13 1.499H737.638c-1.337-31.656-4.36-61.294-9.026-90.384l.578 4.368zm8.704 160.768h117.402c-3.382 31.812-10.607 60.935-21.276 88.338l.796-2.322h-105.37c4.088-24.722 7.111-54.36 8.395-84.448l.053-1.568zm-58.419-324.608c-3.482-7.168-7.117-13.824-10.803-20.48 50.922 26.463 93.089 63.307 124.975 107.993l.721 1.063h-81.459c-9.474-34.166-20.872-63.581-34.765-91.537l1.332 2.961zm33.434 485.888h81.459c-32.607 45.749-74.774 82.593-123.768 108.141l-1.928.915c3.686-6.656 7.322-13.312 10.803-20.48 12.562-24.996 23.96-54.41 32.571-84.992l.862-3.584zM311.091 249.344h-81.459c32.607-45.749 74.774-82.593 123.768-108.141l1.928-.915c-3.686 6.656-7.322 13.312-10.803 20.48-12.562 24.996-23.96 54.41-32.571 84.992l-.862 3.584zm-24.985 161.28H168.653c3.52-31.851 10.846-60.957 21.593-88.346l-.805 2.33h105.318c-4.113 24.619-7.207 54.242-8.59 84.312l-.062 1.704zM549.581 780.8V646.656h84.992c-13.844 54.351-43.862 100.327-84.556 133.796l-.436.348zM389.427 646.656h84.992V780.8c-41.13-33.817-71.148-79.793-84.613-132.398l-.379-1.746zm-18.534-322.048h103.526v86.016h-113.05c1.486-31.615 4.89-61.193 10.142-90.127l-.619 4.111zm-9.575 160.768h113.101v86.016H370.893c-4.62-24.776-8.04-54.349-9.513-84.433l-.062-1.583zm188.263 86.016v-86.016h113.05c-1.486 31.615-4.89 61.193-10.142 90.127l.619-4.111H549.582zm0-246.784h103.526c4.62 24.776 8.04 54.349 9.513 84.433l.062 1.583H549.581v-86.016zM474.419 115.2v134.144h-84.992c13.844-54.351 43.862-100.327 84.556-133.796l.436-.348zm75.162 0c41.13 33.817 71.148 79.793 84.613 132.398l.379 1.746h-84.992V115.2z"/><glyph unicode="" glyph-name="calendar-1" d="M369.92 395.264c-.171 12.763-10.558 23.044-23.345 23.044-.145 0-.289-.001-.433-.004H263.22c-.122.002-.267.004-.412.004-12.788 0-23.174-10.281-23.345-23.027v-81.424c.171-12.763 10.558-23.044 23.345-23.044.145 0 .289.001.433.004h82.922c.122-.002.267-.004.412-.004 12.788 0 23.174 10.281 23.345 23.027v81.424zm207.309 0c-.171 12.763-10.558 23.044-23.345 23.044-.145 0-.289-.001-.433-.004h-82.922c-.122.002-.267.004-.412.004-12.788 0-23.174-10.281-23.345-23.027v-81.424c.171-12.763 10.558-23.044 23.345-23.044.145 0 .289.001.433.004h82.922c.122-.002.267-.004.412-.004 12.788 0 23.174 10.281 23.345 23.027v81.424zm207.309 0c-.171 12.763-10.558 23.044-23.345 23.044-.145 0-.289-.001-.433-.004h-82.922c-.122.002-.267.004-.412.004-12.788 0-23.174-10.281-23.345-23.027v-81.424c.171-12.763 10.558-23.044 23.345-23.044.145 0 .289.001.433.004h82.922c.122-.002.267-.004.412-.004 12.788 0 23.174 10.281 23.345 23.027v81.424zm-414.72-202.752c-.171 12.763-10.558 23.044-23.345 23.044-.145 0-.289-.001-.433-.004h-82.922c-.122.002-.267.004-.412.004-12.788 0-23.174-10.281-23.345-23.027v-81.424c.171-12.763 10.558-23.044 23.345-23.044.145 0 .289.001.433.004h82.922c.122-.002.267-.004.412-.004 12.788 0 23.174 10.281 23.345 23.027v81.424zm207.308 0c-.171 12.763-10.558 23.044-23.345 23.044-.145 0-.289-.001-.433-.004h-82.922c-.122.002-.267.004-.412.004-12.788 0-23.174-10.281-23.345-23.027v-81.424c.171-12.763 10.558-23.044 23.345-23.044.145 0 .289.001.433.004h82.922c.122-.002.267-.004.412-.004 12.788 0 23.174 10.281 23.345 23.027v81.424zm207.309 0c-.171 12.763-10.558 23.044-23.345 23.044-.145 0-.289-.001-.433-.004h-82.922c-.122.002-.267.004-.412.004-12.788 0-23.174-10.281-23.345-23.027v-81.424c.171-12.763 10.558-23.044 23.345-23.044.145 0 .289.001.433.004h82.922c.122-.002.267-.004.412-.004 12.788 0 23.174 10.281 23.345 23.027v81.424zm148.48 653.312V721.92c-.86-55.893-46.372-100.873-102.389-100.873-.472 0-.943.003-1.414.01l.071-.001h-65.382c-.462-.007-1.008-.012-1.554-.012-56.1 0-101.706 44.934-102.79 100.774l-.002.101v124.416h-294.81V721.919c-1.086-55.942-46.691-100.876-102.791-100.876-.546 0-1.092.004-1.636.013l.082-.001h-65.434a102.08 102.08 0 0 0-1.291-.008c-56.017 0-101.528 44.979-102.388 100.791l-.001.081v123.904C41.146 844.668.917 804.26.051 754.257l-.001-.082V28.159c.577-51.023 42.074-92.162 93.178-92.162l.708.003h836.265l.317-.001c51.176 0 92.754 41.096 93.531 92.087l.001.073v726.016c-.868 50.102-41.125 90.521-91.081 91.646l-.106.002zM902.502 73.728c-.202-22.1-18.165-39.937-40.293-39.937l-.272.001H160.511l-.308-.001c-22.118 0-40.069 17.843-40.242 39.921v374.8c.173 22.094 18.124 39.937 40.242 39.937l.325-.001h701.423l.258.001c22.128 0 40.09-17.837 40.293-39.918V73.728zM194.56 687.616h64.717c.152-.002.332-.004.513-.004 19.271 0 34.906 15.565 35.02 34.809v202.763c-.114 19.255-15.749 34.82-35.02 34.82-.18 0-.36-.001-.54-.004h-64.69c-.153.002-.333.004-.513.004-19.281 0-34.928-15.559-35.071-34.806V722.432c.143-19.261 15.79-34.82 35.071-34.82.18 0 .36.001.54.004h-.027zm568.32 0h64.717c.153-.002.333-.004.513-.004 19.281 0 34.928 15.559 35.071 34.806v202.766c-.143 19.261-15.79 34.82-35.071 34.82-.18 0-.36-.001-.54-.004h-64.69a39.34 39.34 0 0 1-.513.004c-19.271 0-34.906-15.565-35.02-34.809V722.432c.114-19.255 15.749-34.82 35.02-34.82.18 0 .36.001.54.004h-.027z"/><glyph unicode="" glyph-name="calendar" d="M369.92 395.264c-.171 12.763-10.558 23.044-23.345 23.044-.145 0-.289-.001-.433-.004H263.22c-.122.002-.267.004-.412.004-12.788 0-23.174-10.281-23.345-23.027v-81.424c.171-12.763 10.558-23.044 23.345-23.044.145 0 .289.001.433.004h82.922c.122-.002.267-.004.412-.004 12.788 0 23.174 10.281 23.345 23.027v81.424zm207.309 0c-.171 12.763-10.558 23.044-23.345 23.044-.145 0-.289-.001-.433-.004h-82.922c-.122.002-.267.004-.412.004-12.788 0-23.174-10.281-23.345-23.027v-81.424c.171-12.763 10.558-23.044 23.345-23.044.145 0 .289.001.433.004h82.922c.122-.002.267-.004.412-.004 12.788 0 23.174 10.281 23.345 23.027v81.424zm207.309 0c-.171 12.763-10.558 23.044-23.345 23.044-.145 0-.289-.001-.433-.004h-82.922c-.122.002-.267.004-.412.004-12.788 0-23.174-10.281-23.345-23.027v-81.424c.171-12.763 10.558-23.044 23.345-23.044.145 0 .289.001.433.004h82.922c.122-.002.267-.004.412-.004 12.788 0 23.174 10.281 23.345 23.027v81.424zm-414.72-202.752c-.171 12.763-10.558 23.044-23.345 23.044-.145 0-.289-.001-.433-.004h-82.922c-.122.002-.267.004-.412.004-12.788 0-23.174-10.281-23.345-23.027v-81.424c.171-12.763 10.558-23.044 23.345-23.044.145 0 .289.001.433.004h82.922c.122-.002.267-.004.412-.004 12.788 0 23.174 10.281 23.345 23.027v81.424zm207.308 0c-.171 12.763-10.558 23.044-23.345 23.044-.145 0-.289-.001-.433-.004h-82.922c-.122.002-.267.004-.412.004-12.788 0-23.174-10.281-23.345-23.027v-81.424c.171-12.763 10.558-23.044 23.345-23.044.145 0 .289.001.433.004h82.922c.122-.002.267-.004.412-.004 12.788 0 23.174 10.281 23.345 23.027v81.424zm207.309 0c-.171 12.763-10.558 23.044-23.345 23.044-.145 0-.289-.001-.433-.004h-82.922c-.122.002-.267.004-.412.004-12.788 0-23.174-10.281-23.345-23.027v-81.424c.171-12.763 10.558-23.044 23.345-23.044.145 0 .289.001.433.004h82.922c.122-.002.267-.004.412-.004 12.788 0 23.174 10.281 23.345 23.027v81.424zm148.48 653.312V721.92c-.86-55.893-46.372-100.873-102.389-100.873-.472 0-.943.003-1.414.01l.071-.001h-65.382c-.462-.007-1.008-.012-1.554-.012-56.1 0-101.706 44.934-102.79 100.774l-.002.101v124.416h-294.81V721.919c-1.086-55.942-46.691-100.876-102.791-100.876-.546 0-1.092.004-1.636.013l.082-.001h-65.434a102.08 102.08 0 0 0-1.291-.008c-56.017 0-101.528 44.979-102.388 100.791l-.001.081v123.904C41.146 844.668.917 804.26.051 754.257l-.001-.082V28.159c.577-51.023 42.074-92.162 93.178-92.162l.708.003h836.265l.317-.001c51.176 0 92.754 41.096 93.531 92.087l.001.073v726.016c-.868 50.102-41.125 90.521-91.081 91.646l-.106.002zM902.502 73.728c-.202-22.1-18.165-39.937-40.293-39.937l-.272.001H160.511l-.308-.001c-22.118 0-40.069 17.843-40.242 39.921v374.8c.173 22.094 18.124 39.937 40.242 39.937l.325-.001h701.423l.258.001c22.128 0 40.09-17.837 40.293-39.918V73.728zM194.56 687.616h64.717c.152-.002.332-.004.513-.004 19.271 0 34.906 15.565 35.02 34.809v202.763c-.114 19.255-15.749 34.82-35.02 34.82-.18 0-.36-.001-.54-.004h-64.69c-.229.005-.499.008-.769.008-19.283 0-34.931-15.561-35.071-34.811V722.432c.14-19.263 15.788-34.824 35.071-34.824.27 0 .54.003.809.009l-.04-.001zm568.32 0h64.717c.229-.005.499-.008.769-.008 19.283 0 34.931 15.561 35.071 34.811v202.765c-.14 19.263-15.788 34.824-35.071 34.824-.27 0-.54-.003-.809-.009l.04.001H762.88a39.34 39.34 0 0 1-.513.004c-19.271 0-34.906-15.565-35.02-34.809V722.432c.114-19.255 15.749-34.82 35.02-34.82.18 0 .36.001.54.004h-.027z"/><glyph unicode="" glyph-name="cash" horiz-adv-x="1075" d="M1008.64 412.672V3.072H224.102v409.6h784.538zm66.56 67.072H157.389V-64H1075.2v543.744zm-250.47 0h250.317v-250.88l-94.003 94.208.253.08a36.312 36.312 0 0 0-10.493-2.128c-29.86 0-54.067 24.207-54.067 54.067v.205l.018.217c.358 3.584 1.081 7.06 2.03 10.023l-93.901 94.208zm62.72-217.6h.03c-.199.002-.398.003-.598.003-29.606 0-53.606-24-53.606-53.606 0-.235.002-.47.004-.669v-.051c0-30.002 24.321-54.323 54.323-54.323s54.323 24.321 54.323 54.323-24.321 54.323-54.323 54.323h-.154zM616.09 350.72l.461-.024c-3.386.222-6.803.334-10.245.334-81.331 0-147.981-62.855-154.056-143.158v-.001c.009-79.62 64.557-144.163 144.179-144.163 79.628 0 144.179 64.551 144.179 144.179 0 72.694-53.798 132.822-124.518 142.832zm-271.36-88.576h.019l-.381.001c-29.663 0-53.709-24.046-53.709-53.709 0-.198.001-.397.003-.564V207.822c0-30.002 24.321-54.323 54.323-54.323s54.323 24.321 54.323 54.323-24.321 54.323-54.323 54.323l-.256-.001zm-187.802-33.28v250.88h250.317l-94.003-94.208-.102.368c1.066-3.328 1.806-6.801 2.201-10.608v-.154c0-29.889-24.23-54.118-54.118-54.118l-.089.004c-3.637.192-7.13.927-10.151 2.044l-93.952-94.208zM315.75 40.448l-.023-.255c-.402-3.573-1.14-7.045-2.076-9.985L407.603-64H157.286v250.88l94.003-94.208-.292-.089a41.603 41.603 0 0 0 13.825 2.348c1.473 0 2.928-.076 4.182-.21l.174-.011c26.134-2.029 46.709-23.879 46.709-50.534 0-1.312-.05-2.612-.137-3.727zM971.008 94.72l.093-.004c3.634-.2 7.127-.934 10.147-2.044l93.952 94.208V-64H824.781l93.952 94.208.1-.367c-1.05 3.331-1.772 6.807-2.148 10.607v-.011.216c0 29.86 24.207 54.067 54.067 54.067zM770.611 685.568h.205c30.002 0 54.323-24.321 54.323-54.323s-24.321-54.323-54.323-54.323-54.323 24.321-54.323 54.323v.054-.003c.144 29.862 24.269 54.041 54.096 54.272h.022zM94.771 479.744c.143 34.58 28.02 62.601 62.531 62.976h34.289l1.536 5.12 482.918 265.216 36.915-10.752c.75-3.869 1.866-7.299 3.344-10.528l-.118.288c9.326-16.942 27.061-28.23 47.433-28.23 9.574 0 18.566 2.493 26.362 6.866l-.272-.14a52.46 52.46 0 0 1 7.926 6.646l.01.01 37.018-10.752 84.122-154.112-10.803-36.864c-3.818-.546-7.267-1.622-10.45-3.164l.21.092c-11.414-6.683-20.092-16.986-24.555-29.307l-.123-.389h159.846L925.032 739.84 804.712 960 .002 518.144l94.72-173.056v134.656zm369.613 145.92c-34.164-18.623-60.894-47.219-76.709-81.846l-.449-1.098h301.722c-2.456 13.834-6.803 26.204-12.825 37.549l.332-.685c-27.873 42.541-75.321 70.25-129.241 70.25-30.748 0-59.392-9.011-83.435-24.536l.605.366z"/><glyph unicode="" glyph-name="company" horiz-adv-x="819" d="M787.292 108.524h-34.57v726.671c-.047 18.356-14.938 33.219-33.3 33.219H628.819v58.368c-.047 18.379-14.956 33.26-33.341 33.26H223.725c-18.385 0-33.295-14.881-33.341-33.255v-58.372H99.739c-18.363 0-33.254-14.862-33.3-33.214V108.526h-34.57C14.313 108.526.072 94.329.002 76.789V-32.213c.047-17.564 14.296-31.785 31.867-31.785h755.466c17.571 0 31.82 14.221 31.867 31.781V76.782c-.07 17.547-14.31 31.744-31.867 31.744h-.043.002zM282.624 245.371a9.257 9.257 0 0 0-9.257-9.216H152.248a9.257 9.257 0 0 0-9.257 9.214V366.08a9.257 9.257 0 0 0 9.257 9.216h121.119a9.257 9.257 0 0 0 9.257-9.214V245.453zm0 192.512a9.257 9.257 0 0 0-9.257-9.216H152.248a9.257 9.257 0 0 0-9.257 9.214v120.711a9.257 9.257 0 0 0 9.257 9.216h121.119a9.257 9.257 0 0 0 9.257-9.214V437.965zm0 194.683c-.023-5.103-4.154-9.234-9.255-9.257H152.248c-5.103.023-9.234 4.154-9.257 9.255v120.67c.046 5.086 4.168 9.193 9.255 9.216h121.121a9.298 9.298 0 0 0 9.257-9.212V632.566zM479.56 82.309a9.257 9.257 0 0 0-9.257-9.216H349.184a9.257 9.257 0 0 0-9.257 9.214V366.08a9.257 9.257 0 0 0 9.257 9.216h121.119a9.257 9.257 0 0 0 9.257-9.214V82.514zm0 355.574a9.257 9.257 0 0 0-9.257-9.216H349.184a9.257 9.257 0 0 0-9.257 9.214v120.711a9.257 9.257 0 0 0 9.257 9.216h121.119a9.257 9.257 0 0 0 9.257-9.214V437.965zm0 194.683c-.023-5.103-4.154-9.234-9.255-9.257H349.184c-5.103.023-9.234 4.154-9.257 9.255v120.67c.046 5.086 4.168 9.193 9.255 9.216h121.121a9.298 9.298 0 0 0 9.257-9.212V632.566zm197.468-387.318a9.257 9.257 0 0 0-9.257-9.216H546.693a9.257 9.257 0 0 0-9.257 9.214V366.08a9.257 9.257 0 0 0 9.257 9.216h120.955a9.257 9.257 0 0 0 9.257-9.214V245.453zm0 192.512a9.257 9.257 0 0 0-9.257-9.216H546.693a9.257 9.257 0 0 0-9.257 9.214v120.834a9.257 9.257 0 0 0 9.257 9.216h120.955a9.257 9.257 0 0 0 9.257-9.214V437.965zm0 194.683a9.257 9.257 0 0 0-9.257-9.257H546.693a9.257 9.257 0 0 0-9.257 9.257v120.668a9.257 9.257 0 0 0 9.257 9.216h120.955a9.257 9.257 0 0 0 9.257-9.214v-120.67z"/><glyph unicode="" glyph-name="corp_sites" horiz-adv-x="1229" d="M0 960V-64h1228.8V960H0zm913.51-76.8c24.584-.426 44.35-20.455 44.35-45.101 0-.344-.004-.688-.012-1.03l.001.051c-1.969-22.959-21.09-40.848-44.39-40.848s-42.422 17.889-44.379 40.682l-.011.166c-.005.261-.009.569-.009.877 0 24.702 19.81 44.776 44.41 45.203l.04.001zm-170.649 0c24.59-.455 44.349-20.496 44.349-45.151 0-.327-.003-.652-.01-.977l.001.048c-1.969-22.959-21.09-40.848-44.39-40.848s-42.422 17.889-44.379 40.682l-.011.166c-.005.261-.009.569-.009.877 0 24.702 19.81 44.776 44.41 45.203l.04.001zm363.008-834.56H122.88v640h983.04v-640zm-21.709 747.52l-.228-.001c-23.289 0-42.379 17.975-44.153 40.808l-.01.152a42.456 42.456 0 0 0-.051 2.133c0 24.544 19.897 44.442 44.442 44.442s44.442-19.897 44.442-44.442a46.1 46.1 0 0 0-.055-2.237l.004.104c-1.758-22.98-20.837-40.961-44.115-40.961l-.29.001h.015zm-493.466-614.4c25.343 24.389 41.085 58.599 41.085 96.485 0 26.928-7.952 51.998-21.637 72.99l.315-.515 92.16 92.16 44.902-46.08 32.614 35.84-29.747 25.6 16.026 15.36 29.85-25.6 34.97 30.72-29.747 30.72 16.026 15.36 29.798-30.72 30.31 30.72-89.395 87.04L565.76 396.8c-20.987 12.251-46.203 19.485-73.107 19.485-39.019 0-74.484-15.213-100.789-40.032l.072.067c-25.389-24.667-41.143-59.134-41.143-97.28s15.754-72.613 41.111-97.249l.032-.031c26.117-23.875 61.04-38.502 99.379-38.502s73.262 14.627 99.492 38.604l-.113-.102zm-159.385 128l88.934-87.04L489.984 192l-88.934 87.04z"/><glyph unicode="" glyph-name="design-1" horiz-adv-x="1122" d="M442.612 411.429c-19.235-25.318-37.336-53.895-52.95-83.969l-1.566-3.314c32.874-24.337 58.986-55.98 76.221-92.624l.628-1.486c37.116 17.522 68.588 35.718 98.399 56.16l-2.387-1.546c166.473 143.848 574.025 659.749 559.982 674.865-14.726 16.091-531.749-383.269-678.327-548.084zm-102.4-127.269c-72.265 13.166-143.653-33.646-191.244-151.162S16.141-31.33-.39-28.404c88.844-32.67 359.863-117.516 427.203 204.312-16.505 45.636-46.866 82.932-85.936 107.741l-.86.51z"/><glyph unicode="" glyph-name="design" horiz-adv-x="1128" d="M445.237 410.311c-19.412-25.317-37.641-53.854-53.364-83.91l-1.553-3.261c33.177-24.28 59.491-56.033 76.755-92.873l.622-1.477c37.272 17.478 68.928 35.763 98.863 56.368l-2.308-1.502c167.419 144.088 577.378 660.959 563.277 675.83-14.819 15.896-534.921-383.551-682.291-549.176zm-103.22-127.166c-72.711 13.332-144.498-33.843-192.391-151.267S15.998-32.721-.564-29.644C88.812-62.974 361.4-147.581 429.137 174.438c-16.538 45.836-47.02 83.296-86.257 108.195l-.863.512z"/><glyph unicode="" glyph-name="document" d="M1012.582 424.96c-6.61 16.87-15.903 31.327-27.501 43.582l.058-.062-233.165 233.472a124.243 124.243 0 0 1-19.963 15.569l-.517.303v187.392c.005.272.008.593.008.914 0 14.893-6.138 28.353-16.022 37.987l-.011.011c-9.537 9.804-22.856 15.887-37.596 15.887-.445 0-.888-.006-1.33-.017l.065.001H54.835l-.462.002c-30.03 0-54.374-24.344-54.374-54.374l.002-.434v.022-768a50.811 50.811 0 0 1-.002-.412c0-30.03 24.344-54.374 54.374-54.374l.487.002h310.861V-9.217a49.697 49.697 0 0 1-.009-.984c0-14.862 6.118-28.295 15.973-37.918l.011-.01c9.537-9.804 22.856-15.887 37.596-15.887.445 0 .888.006 1.33.017l-.065-.001h548.608l.359-.001c30.087 0 54.477 24.39 54.477 54.477l-.001.325v-.017 384c-.467 18.268-4.625 35.45-11.751 50.987l.333-.811zM731.443 619.008L902.297 448H731.443v171.008zm-566.886 194.56a17.873 17.873 0 0 0-12.843 5.623l-.008.009a17.01 17.01 0 0 0-5.427 12.817V832v36.352a18.983 18.983 0 0 0 5.431 13.315l-.003-.003a17.357 17.357 0 0 0 12.877 5.12l-.026.001h402.278a17.248 17.248 0 0 0 12.849-5.119l.001-.001a19.03 19.03 0 0 0 5.478-13.308v-36.356l.002-.254c0-4.952-2.105-9.413-5.469-12.536l-.011-.01a17.778 17.778 0 0 0-12.843-5.632H164.557zM950.835 9.216h-512v658.432h219.443v-238.08c-.002-.19-.004-.414-.004-.638 0-14.979 6.132-28.526 16.023-38.267l.007-.007c9.842-9.809 23.421-15.873 38.417-15.873l.414.002h237.701V9.217z"/><glyph unicode="" glyph-name="edit" d="M1011.354 947.2c-7.367 7.888-17.828 12.804-29.438 12.804-.199 0-.397-.001-.595-.004H42.65C19.331 959.552.534 940.81.001 917.554l-.001-.05V-21.504C.534-44.81 19.331-63.552 42.607-63.999l.042-.001H981.35c23.319.448 42.116 19.19 42.649 42.446l.001.05v939.008l.002.36c0 11.549-4.852 21.964-12.629 29.318l-.019.018zM469.35 149.504a21.08 21.08 0 0 0-5.994-15.365l.004.004A20.419 20.419 0 0 0 447.964 128l.036-.001H128a20.42 20.42 0 0 0-15.357 6.14l-.003.004a21.074 21.074 0 0 0-5.99 15.391l-.001-.031v682.496a20.87 20.87 0 0 0 5.994 15.363l-.003-.003a20.419 20.419 0 0 0 15.396 6.143l-.036.001h320a20.42 20.42 0 0 0 15.357-6.14l.003-.004a21.074 21.074 0 0 0 5.99-15.391l.001.031V149.503zm448 256a21.08 21.08 0 0 0-5.994-15.365l.004.004A20.419 20.419 0 0 0 895.964 384l.036-.001H576.051a20.42 20.42 0 0 0-15.357 6.14l-.003.004a21.074 21.074 0 0 0-5.99 15.391l-.001-.031v426.496a21.08 21.08 0 0 0 5.994 15.365l-.004-.004a20.419 20.419 0 0 0 15.396 6.143l-.036.001h319.949a20.42 20.42 0 0 0 15.357-6.14l.003-.004a21.074 21.074 0 0 0 5.99-15.391l.001.031V405.504z"/><glyph unicode="" glyph-name="give" horiz-adv-x="1330" d="M894.413 786.432h328.55v173.056h-328.55V786.432zm11.161-493.056v-53.248c104.206 35.711 192.627 94.498 262.554 170.557l.409.451c35.584 43.52 55.04 32.768 55.04 32.768l-.717 285.184H905.42V526.336c14.252-6.798 25.252-18.496 30.984-32.865l.146-.415c4.534-18.181 7.136-39.053 7.136-60.532a262.54 262.54 0 0 0-2.478-36.064l.155 1.364c.307-97.792-21.35-101.376-35.635-104.448zM759.091 729.088H424.755V563.2h334.336v165.888zm446.771-370.176c-5.106 1.859-11 2.934-17.146 2.934-2.186 0-4.34-.136-6.454-.4l.252.026c-60.058-10.752-150.938-225.792-387.533-163.84-37.246 11.326-68.851 24.018-99.093 39.042l3.707-1.666c-43.814 23.557-80.634 46.632-115.848 71.812l3.208-2.18h238.95a86.506 86.506 0 0 1 21.675 2.16l-.58-.112c19.092 1.61 33.981 17.496 33.997 36.862v106.498c-4.52 20.455-16.874 37.428-33.681 47.944l-.316.184c-5.874 2.914-12.792 4.619-20.108 4.619-.347 0-.693-.004-1.038-.011l.051.001H271.153V50.177s375.04-113.664 507.29-113.664c0 0 330.65-13.824 551.219 233.984-.051 0-57.446 163.328-123.648 188.416zm-446.72 600.576H424.857V786.432h334.285v173.056zM-.819-63.488h191.078v623.104H-.819V-63.488z"/><glyph unicode="" glyph-name="hosting" d="M0 550.4V345.6c.015-16.874 5.342-32.501 14.399-45.302l-.165.246h995.482c8.927 12.544 14.275 28.174 14.285 45.054V550.4c-.015 16.874-5.342 32.501-14.399 45.302l.165-.246H14.234C5.342 582.901.015 567.274 0 550.404v-.004zm887.45-111.104c.107.002.232.004.358.004 9.614 0 17.408-7.794 17.408-17.408s-7.794-17.408-17.408-17.408c-9.613 0-17.406 7.792-17.408 17.404l-.001.205c0 9.447 7.616 17.116 17.043 17.202h.008zm-34.1 52.224c.091.002.199.003.307.003 9.614 0 17.408-7.794 17.408-17.408s-7.794-17.408-17.408-17.408c-9.613 0-17.406 7.792-17.408 17.405a19.66 19.66 0 0 0-.002.256c0 9.455 7.651 17.124 17.1 17.152h.003zm-34.15-52.224c.107.002.232.004.358.004 9.614 0 17.408-7.794 17.408-17.408s-7.794-17.408-17.408-17.408c-9.613 0-17.406 7.792-17.408 17.404a19.66 19.66 0 0 0-.002.256c0 9.437 7.622 17.095 17.046 17.152h.005zm-34.15 52.224c.107.002.232.004.358.004 9.614 0 17.408-7.794 17.408-17.408s-7.794-17.408-17.408-17.408c-9.613 0-17.406 7.792-17.408 17.404l-.001.205c0 9.447 7.616 17.116 17.043 17.202h.008zm-34.1-52.224c.091.002.199.003.307.003 9.614 0 17.408-7.794 17.408-17.408s-7.794-17.408-17.408-17.408c-9.613 0-17.406 7.792-17.408 17.405a19.66 19.66 0 0 0-.002.256c0 9.455 7.651 17.124 17.1 17.152h.003zM716.8 491.52c.107.002.232.004.358.004 9.614 0 17.408-7.794 17.408-17.408s-7.794-17.408-17.408-17.408c-9.613 0-17.406 7.792-17.408 17.404a19.66 19.66 0 0 0-.002.256c0 9.437 7.622 17.095 17.046 17.152h.005zm-34.15-52.224c.107.002.232.004.358.004 9.614 0 17.408-7.794 17.408-17.408s-7.794-17.408-17.408-17.408c-9.613 0-17.406 7.792-17.408 17.404l-.001.205c0 9.447 7.616 17.116 17.043 17.202h.008zm-34.1 52.224c.091.002.199.003.307.003 9.614 0 17.408-7.794 17.408-17.408s-7.794-17.408-17.408-17.408c-9.613 0-17.406 7.792-17.408 17.405a19.66 19.66 0 0 0-.002.256c0 9.455 7.651 17.124 17.1 17.152h.003zm-34.15-52.224c.107.002.232.004.358.004 9.614 0 17.408-7.794 17.408-17.408s-7.794-17.408-17.408-17.408c-9.613 0-17.406 7.792-17.408 17.404a19.66 19.66 0 0 0-.002.256c0 9.437 7.622 17.095 17.046 17.152h.005zm-34.15 52.224c.107.002.232.004.358.004 9.614 0 17.408-7.794 17.408-17.408s-7.794-17.408-17.408-17.408c-9.613 0-17.406 7.792-17.408 17.404l-.001.205c0 9.447 7.616 17.116 17.043 17.202h.008zM179.2 526.336c.457.01.996.015 1.536.015 43.264 0 78.336-35.072 78.336-78.336S224 369.679 180.736 369.679c-43.258 0-78.327 35.064-78.336 78.32V448l-.002.569c0 42.611 34.269 77.219 76.75 77.766l.052.001zm830.566 103.936c8.892 12.555 14.219 28.182 14.234 45.052v204.804l.002.515c0 43.578-35.124 78.952-78.607 79.356H78.643C35.122 959.594-.002 924.22-.002 880.642l.002-.543v.028-204.8c.015-16.874 5.342-32.501 14.399-45.302l-.165.246h995.533zM887.45 769.024c9.457-.057 17.102-7.737 17.102-17.203l-.001-.216v.011c.016-.279.026-.606.026-.935 0-9.445-7.656-17.101-17.101-17.101s-17.101 7.656-17.101 17.101c0 .329.009.656.028.98l-.002-.045a19.66 19.66 0 0 0-.002.256c0 9.437 7.622 17.095 17.046 17.152h.005zm-34.1 52.224c.091.002.199.003.307.003 9.614 0 17.408-7.794 17.408-17.408s-7.794-17.408-17.408-17.408c-9.613 0-17.406 7.792-17.408 17.405a19.66 19.66 0 0 0-.002.256c0 9.455 7.651 17.124 17.1 17.152h.003zm-34.15-52.224c9.429-.057 17.052-7.714 17.052-17.152l-.002-.27v.014c0-9.416-7.633-17.05-17.05-17.05s-17.05 7.633-17.05 17.05a19.66 19.66 0 0 0-.002.256c0 9.437 7.622 17.095 17.046 17.152h.005zm-34.15 52.224c.107.002.232.004.358.004 9.614 0 17.408-7.794 17.408-17.408s-7.794-17.408-17.408-17.408c-9.613 0-17.406 7.792-17.408 17.404l-.001.205c0 9.447 7.616 17.116 17.043 17.202h.008zm-34.1-52.224c9.429-.057 17.052-7.714 17.052-17.152l-.002-.27v.014c.016-.279.026-.606.026-.935 0-9.445-7.656-17.101-17.101-17.101s-17.101 7.656-17.101 17.101c0 .329.009.656.028.98l-.002-.045-.001.205c0 9.465 7.645 17.145 17.097 17.203h.005zm-34.15 52.224c.107.002.232.004.358.004 9.614 0 17.408-7.794 17.408-17.408s-7.794-17.408-17.408-17.408c-9.613 0-17.406 7.792-17.408 17.404a19.66 19.66 0 0 0-.002.256c0 9.437 7.622 17.095 17.046 17.152h.005zm-34.15-52.224c9.457-.057 17.102-7.737 17.102-17.203l-.001-.216v.011c.016-.279.026-.606.026-.935 0-9.445-7.656-17.101-17.101-17.101s-17.101 7.656-17.101 17.101c0 .329.009.656.028.98l-.002-.045a19.66 19.66 0 0 0-.002.256c0 9.437 7.622 17.095 17.046 17.152h.005zm-34.1 52.224c.091.002.199.003.307.003 9.614 0 17.408-7.794 17.408-17.408s-7.794-17.408-17.408-17.408c-9.613 0-17.406 7.792-17.408 17.405a19.66 19.66 0 0 0-.002.256c0 9.455 7.651 17.124 17.1 17.152h.003zm-34.15-52.224c9.429-.057 17.052-7.714 17.052-17.152l-.002-.27v.014c0-9.416-7.633-17.05-17.05-17.05s-17.05 7.633-17.05 17.05a19.66 19.66 0 0 0-.002.256c0 9.437 7.622 17.095 17.046 17.152h.005zm-34.15 52.224c.107.002.232.004.358.004 9.614 0 17.408-7.794 17.408-17.408s-7.794-17.408-17.408-17.408c-9.613 0-17.406 7.792-17.408 17.404l-.001.205c0 9.447 7.616 17.116 17.043 17.202h.008zM179.2 856.064c.381.007.83.01 1.28.01 43.122 0 78.08-34.958 78.08-78.08s-34.958-78.08-78.08-78.08c-43.029 0-77.928 34.806-78.08 77.799v.015l-.002.569c0 42.611 34.269 77.219 76.75 77.766l.052.001zM14.234 265.728C5.342 253.173.015 237.546 0 220.676V15.872a79.607 79.607 0 0 1-.002-.515c0-43.578 35.124-78.952 78.607-79.356h866.752c43.521.405 78.645 35.779 78.645 79.357l-.002.543v-.028 204.8c-.01 16.882-5.358 32.512-14.448 45.297l.163-.241H14.233zM179.2 39.936a72.64 72.64 0 0 0-1.536-.015c-43.264 0-78.336 35.072-78.336 78.336s35.072 78.336 78.336 78.336c43.258 0 78.327-35.064 78.336-78.32v-.001l.002-.569c0-42.611-34.269-77.219-76.75-77.766l-.052-.001zm401.05 87.04a14.481 14.481 0 0 0-.307-.003c-9.614 0-17.408 7.794-17.408 17.408s7.794 17.408 17.408 17.408c9.613 0 17.406-7.792 17.408-17.405l.002-.256c0-9.455-7.651-17.124-17.1-17.152h-.003zm34.15-52.224a19.284 19.284 0 0 0-.358-.004c-9.614 0-17.408 7.794-17.408 17.408s7.794 17.408 17.408 17.408c9.613 0 17.406-7.792 17.408-17.404l.002-.256c0-9.437-7.622-17.095-17.046-17.152h-.005zm34.15 52.224a19.284 19.284 0 0 0-.358-.004c-9.614 0-17.408 7.794-17.408 17.408s7.794 17.408 17.408 17.408c9.613 0 17.406-7.792 17.408-17.404l.001-.205c0-9.447-7.616-17.116-17.043-17.202h-.008zm34.1-52.224a14.481 14.481 0 0 0-.307-.003c-9.614 0-17.408 7.794-17.408 17.408s7.794 17.408 17.408 17.408c9.613 0 17.406-7.792 17.408-17.405l.002-.256c0-9.455-7.651-17.124-17.1-17.152h-.003zm34.15 52.224a19.284 19.284 0 0 0-.358-.004c-9.614 0-17.408 7.794-17.408 17.408s7.794 17.408 17.408 17.408c9.613 0 17.406-7.792 17.408-17.404l.002-.256c0-9.437-7.622-17.095-17.046-17.152h-.005zm34.15-52.224a19.284 19.284 0 0 0-.358-.004c-9.614 0-17.408 7.794-17.408 17.408s7.794 17.408 17.408 17.408c9.613 0 17.406-7.792 17.408-17.404l.001-.205c0-9.447-7.616-17.116-17.043-17.202h-.008zm34.1 52.224a14.481 14.481 0 0 0-.307-.003c-9.614 0-17.408 7.794-17.408 17.408s7.794 17.408 17.408 17.408c9.613 0 17.406-7.792 17.408-17.405l.002-.256c0-9.455-7.651-17.124-17.1-17.152h-.003zm34.15-52.224a19.284 19.284 0 0 0-.358-.004c-9.614 0-17.408 7.794-17.408 17.408s7.794 17.408 17.408 17.408c9.613 0 17.406-7.792 17.408-17.404l.002-.256c0-9.437-7.622-17.095-17.046-17.152h-.005zm34.15 52.224a19.284 19.284 0 0 0-.358-.004c-9.614 0-17.408 7.794-17.408 17.408s7.794 17.408 17.408 17.408c9.613 0 17.406-7.792 17.408-17.404l.001-.205c0-9.447-7.616-17.116-17.043-17.202h-.008zm34.1-52.224a14.481 14.481 0 0 0-.307-.003c-9.614 0-17.408 7.794-17.408 17.408s7.794 17.408 17.408 17.408c9.613 0 17.406-7.792 17.408-17.405l.002-.256c0-9.455-7.651-17.124-17.1-17.152h-.003z"/><glyph unicode="" glyph-name="in_process-1" horiz-adv-x="1229" d="M1169.306 960H59.495c-.338.007-.736.011-1.135.011-31.88 0-57.79-25.558-58.358-57.302l-.001-.053V229.888c.569-31.797 26.48-57.355 58.359-57.355.399 0 .797.004 1.195.012l-.059-.001h415.078V42.496H313.038c-.697.033-1.514.051-2.336.051-29.436 0-53.299-23.863-53.299-53.299s23.863-53.299 53.299-53.299c.821 0 1.639.019 2.451.055l-.115-.004h602.726a50.872 50.872 0 0 1 2.336-.051c29.436 0 53.299 23.863 53.299 53.299S947.536 42.547 918.1 42.547c-.821 0-1.639-.019-2.451-.055l.115.004H754.228v130.048h415.078c.338-.007.736-.011 1.135-.011 31.88 0 57.79 25.558 58.358 57.302l.001.053v672.768c-.569 31.797-26.48 57.355-58.359 57.355-.399 0-.797-.004-1.195-.012l.059.001zm-29.748-701.44H89.241v615.424h1050.317V258.56zM281.446 534.016l187.699-84.48c4.479-1.942 9.695-3.072 15.176-3.072h.194-.01a37.15 37.15 0 0 1 19.782 5.215l-.172-.095c10.053 6.256 16.684 17.184 16.845 29.672v1.048c-.169 14.289-8.674 26.551-20.872 32.164l-.223.092-117.402 52.736 117.402 52.224c12.42 5.705 20.925 17.967 21.094 32.234v1.046c-.161 12.512-6.792 23.44-16.695 29.609l-.15.087c-5.397 3.223-11.903 5.129-18.855 5.129-.283 0-.566-.003-.848-.009l.042.001h-.154a39.037 39.037 0 0 1-15.461-3.17l.255.097-187.648-84.48c-12.467-5.388-21.044-17.558-21.094-31.738v-2.566c.078-14.219 8.717-26.4 21.022-31.658l.226-.086zM522.65 361.984c6.961-8.696 17.544-14.243 29.424-14.336h.886c.205-.004.446-.007.687-.007 15.768 0 29.157 10.182 33.952 24.33l.074.253L711.321 742.4c1.102 3.205 1.738 6.898 1.738 10.739a33.898 33.898 0 0 1-6.919 20.577l.061-.084c-6.728 8.753-17.202 14.339-28.98 14.339-.162 0-.323-.001-.485-.003h-.898c-.181.003-.394.005-.608.005-15.643 0-28.969-9.923-34.026-23.817l-.08-.252-123.699-370.176c-1.09-3.234-1.72-6.959-1.72-10.831a34.809 34.809 0 0 1 7.007-21.002l-.065.09zm185.19 289.792c.169-14.289 8.674-26.551 20.872-32.164l.223-.092 117.402-52.224-117.402-52.736c-12.441-5.691-20.967-17.956-21.145-32.233v-1.047c.162-12.523 6.816-23.457 16.745-29.609l.151-.087c5.405-3.222 11.92-5.127 18.88-5.127.257 0 .513.003.768.008l-.038-.001h.031c5.533 0 10.802 1.13 15.589 3.171l-.26-.099 187.648 84.48c12.467 5.388 21.044 17.558 21.094 31.738v2.566c-.05 14.186-8.627 26.356-20.87 31.658l-.224.086-187.699 84.48c-4.463 1.943-9.662 3.073-15.124 3.073l-.248-.001h.013a37.055 37.055 0 0 1-19.832-5.214l.171.094c-10.053-6.256-16.684-17.184-16.845-29.672v-1.048z"/><glyph unicode="" glyph-name="in_process" horiz-adv-x="1229" d="M1169.306 960H59.495c-.338.007-.736.011-1.135.011-31.88 0-57.79-25.558-58.358-57.302l-.001-.053V229.888c.569-31.797 26.48-57.355 58.359-57.355.399 0 .797.004 1.195.012l-.059-.001h415.078V42.496H313.038c-.697.033-1.514.051-2.336.051-29.436 0-53.299-23.863-53.299-53.299s23.863-53.299 53.299-53.299c.821 0 1.639.019 2.451.055l-.115-.004h602.726a50.872 50.872 0 0 1 2.336-.051c29.436 0 53.299 23.863 53.299 53.299S947.536 42.547 918.1 42.547c-.821 0-1.639-.019-2.451-.055l.115.004H754.228v130.048h415.078c.338-.007.736-.011 1.135-.011 31.88 0 57.79 25.558 58.358 57.302l.001.053v672.768c-.569 31.797-26.48 57.355-58.359 57.355-.399 0-.797-.004-1.195-.012l.059.001zm-29.748-700.928H89.241v614.912h1050.317V259.072zM281.446 534.016l187.699-84.48c4.479-1.942 9.695-3.072 15.176-3.072h.194-.01a37.15 37.15 0 0 1 19.782 5.215l-.172-.095c10.053 6.256 16.684 17.184 16.845 29.672v1.048c-.169 14.289-8.674 26.551-20.872 32.164l-.223.092-117.402 52.736 117.402 52.224c12.42 5.705 20.925 17.967 21.094 32.234v1.046c-.161 12.512-6.792 23.44-16.695 29.609l-.15.087c-5.397 3.223-11.903 5.129-18.855 5.129-.283 0-.566-.003-.848-.009l.042.001h-.154a39.037 39.037 0 0 1-15.461-3.17l.255.097-187.648-84.48c-12.467-5.388-21.044-17.558-21.094-31.738v-2.566c.078-14.219 8.717-26.4 21.022-31.658l.226-.086zM522.65 361.984c6.961-8.696 17.544-14.243 29.424-14.336h.886c.205-.004.446-.007.687-.007 15.768 0 29.157 10.182 33.952 24.33l.074.253L711.321 742.4c1.102 3.205 1.738 6.898 1.738 10.739a33.898 33.898 0 0 1-6.919 20.577l.061-.084c-6.728 8.753-17.202 14.339-28.98 14.339-.162 0-.323-.001-.485-.003h-.898c-.181.003-.394.005-.608.005-15.643 0-28.969-9.923-34.026-23.817l-.08-.252-123.699-370.176c-1.09-3.234-1.72-6.959-1.72-10.831a34.809 34.809 0 0 1 7.007-21.002l-.065.09zm185.19 289.792c.169-14.289 8.674-26.551 20.872-32.164l.223-.092 117.402-52.224-117.402-52.736c-12.441-5.691-20.967-17.956-21.145-32.233v-1.047c.162-12.523 6.816-23.457 16.745-29.609l.151-.087c5.405-3.222 11.92-5.127 18.88-5.127.257 0 .513.003.768.008l-.038-.001h.031c5.533 0 10.802 1.13 15.589 3.171l-.26-.099 187.648 84.48c12.467 5.388 21.044 17.558 21.094 31.738v2.566c-.05 14.186-8.627 26.356-20.87 31.658l-.224.086-187.699 84.48c-4.463 1.943-9.662 3.073-15.124 3.073l-.248-.001h.013a37.055 37.055 0 0 1-19.832-5.214l.171.094c-10.053-6.256-16.684-17.184-16.845-29.672v-1.048z"/><glyph unicode="" glyph-name="internet-magazin-1" horiz-adv-x="1229" d="M1133.21 960H95.591c-.552.012-1.204.018-1.856.018-51.224 0-92.852-41.082-93.733-92.096l-.001-.083V763.391c.172-7.388 6.202-13.312 13.616-13.312h1201.569c7.414 0 13.444 5.924 13.615 13.296v104.464c-.882 51.096-42.511 92.178-93.734 92.178a97.51 97.51 0 0 1-1.953-.02l.097.002zM172.339 825.344c-15.954.568-28.672 13.638-28.672 29.678 0 16.401 13.295 29.696 29.696 29.696 16.394 0 29.686-13.285 29.696-29.677v-.001c-.314-16.469-13.739-29.7-30.254-29.7-.164 0-.327.001-.491.004h.025zm98.765 0c-15.954.568-28.672 13.638-28.672 29.678 0 16.401 13.295 29.696 29.696 29.696 16.394 0 29.686-13.285 29.696-29.677v-.001c-.316-16.468-13.74-29.697-30.254-29.697l-.221.001h.011zm98.765 0c-15.954.568-28.672 13.638-28.672 29.678 0 16.401 13.295 29.696 29.696 29.696 16.394 0 29.686-13.285 29.696-29.677v-.001c-.314-16.469-13.739-29.7-30.254-29.7-.164 0-.327.001-.491.004h.025zm478.003-448.512c-8.006-7.602-12.987-18.323-12.987-30.208s4.981-22.606 12.969-30.191l.018-.017c8.098-7.845 19.151-12.68 31.334-12.68s23.237 4.835 31.346 12.692l-.012-.011c8.006 7.602 12.987 18.323 12.987 30.208s-4.981 22.606-12.969 30.191l-.018.017c-8.197 7.618-19.22 12.294-31.334 12.294s-23.138-4.675-31.363-12.32l.029.026zm367.258 320.512H13.671c-.122.004-.266.006-.41.006C5.937 697.35 0 691.413 0 684.089v-.061.003V28.159C1.055-22.97 42.752-64.014 94.036-64.014c.547 0 1.092.005 1.637.014l-.082-.001H1133.21a92.48 92.48 0 0 1 1.555-.013c51.283 0 92.98 41.044 94.034 92.074l.002.098v655.93c0 7.324-5.937 13.261-13.261 13.261-.144 0-.288-.002-.431-.007l.021.001zM720.384 192h-503.91a24.987 24.987 0 0 0-1.636-.051c-14.45 0-26.163 11.714-26.163 26.163s11.714 26.163 26.163 26.163c.576 0 1.147-.019 1.713-.055l-.077.004h503.91c14.421 0 26.112-11.691 26.112-26.112S734.805 192 720.384 192zm311.245 7.68c-5.023-4.753-11.822-7.675-19.302-7.675s-14.279 2.922-19.315 7.688l.013-.012-65.894 63.488c-13.867-7.62-30.389-12.103-47.959-12.103-27.091 0-51.692 10.659-69.839 28.011l.038-.036c-17.845 16.943-28.946 40.839-28.946 67.328s11.102 50.385 28.906 67.29l.04.038c18.145 17.35 42.795 28.028 69.939 28.028s51.794-10.679 69.977-28.065l-.038.036c17.831-16.973 28.921-40.887 28.921-67.392 0-17.029-4.578-32.988-12.57-46.715l.238.443 65.894-63.488c4.91-4.608 7.969-11.139 7.969-18.384 0-7.295-3.101-13.865-8.056-18.465l-.016-.015z"/><glyph unicode="" glyph-name="internet-magazin-2" horiz-adv-x="1229" d="M1133.21 960H95.591a92.48 92.48 0 0 1-1.555.013c-51.283 0-92.98-41.044-94.034-92.074L0 867.841V763.393v-.058c0-7.324 5.937-13.261 13.261-13.261.144 0 .288.002.431.007l-.021-.001H1215.13c.107-.003.232-.005.358-.005 7.352 0 13.312 5.96 13.312 13.312V867.84c-1.055 51.129-42.752 92.173-94.036 92.173-.547 0-1.092-.005-1.637-.014l.082.001zM172.339 825.344c-15.954.568-28.672 13.638-28.672 29.678 0 16.401 13.295 29.696 29.696 29.696 16.394 0 29.686-13.285 29.696-29.677v-.001c-.314-16.469-13.739-29.7-30.254-29.7-.164 0-.327.001-.491.004h.025zm98.765 0c-15.954.568-28.672 13.638-28.672 29.678 0 16.401 13.295 29.696 29.696 29.696 16.394 0 29.686-13.285 29.696-29.677v-.001c-.316-16.468-13.74-29.697-30.254-29.697l-.221.001h.011zm98.765 0c-15.954.568-28.672 13.638-28.672 29.678 0 16.401 13.295 29.696 29.696 29.696 16.394 0 29.686-13.285 29.696-29.677v-.001c-.314-16.469-13.739-29.7-30.254-29.7-.164 0-.327.001-.491.004h.025zm478.003-448.512c-8.006-7.602-12.987-18.323-12.987-30.208s4.981-22.606 12.969-30.191l.018-.017c8.098-7.845 19.151-12.68 31.334-12.68s23.237 4.835 31.346 12.692l-.012-.011c8.006 7.602 12.987 18.323 12.987 30.208s-4.981 22.606-12.969 30.191l-.018.017c-8.197 7.618-19.22 12.294-31.334 12.294s-23.138-4.675-31.363-12.32l.029.026zm367.258 320.512H13.671c-.154.006-.335.01-.517.01-7.145 0-12.959-5.694-13.153-12.792V28.16c1.055-51.129 42.752-92.173 94.036-92.173.547 0 1.092.005 1.637.014L95.592-64h1037.619a92.48 92.48 0 0 1 1.555-.013c51.283 0 92.98 41.044 94.034 92.074l.002.098v656.384c-.194 7.116-6.009 12.81-13.154 12.81-.182 0-.363-.004-.542-.011l.026.001zM720.384 192h-503.91a24.987 24.987 0 0 0-1.636-.051c-14.45 0-26.163 11.714-26.163 26.163s11.714 26.163 26.163 26.163c.576 0 1.147-.019 1.713-.055l-.077.004h503.91c14.421 0 26.112-11.691 26.112-26.112S734.805 192 720.384 192zm311.245 7.68c-5.023-4.753-11.822-7.675-19.302-7.675s-14.279 2.922-19.315 7.688l.013-.012-65.894 63.488c-13.867-7.62-30.389-12.103-47.959-12.103-27.091 0-51.692 10.659-69.839 28.011l.038-.036c-17.845 16.943-28.946 40.839-28.946 67.328s11.102 50.385 28.906 67.29l.04.038c18.145 17.35 42.795 28.028 69.939 28.028s51.794-10.679 69.977-28.065l-.038.036c17.831-16.973 28.921-40.887 28.921-67.392 0-17.029-4.578-32.988-12.57-46.715l.238.443 65.894-63.488c4.91-4.608 7.969-11.139 7.969-18.384 0-7.295-3.101-13.865-8.056-18.465l-.016-.015z"/><glyph unicode="" glyph-name="internet-magazin" horiz-adv-x="1229" d="M1133.21 960H95.591c-.552.012-1.204.018-1.856.018-51.224 0-92.852-41.082-93.733-92.096l-.001-.083v-102.4a13.13 13.13 0 0 1-.119-1.794c0-7.493 6.075-13.568 13.568-13.568l.233.002H1215.13l.163-.001c7.522 0 13.619 6.098 13.619 13.619 0 .614-.041 1.219-.119 1.811l.008-.069v102.4c-.882 51.096-42.511 92.178-93.734 92.178a97.51 97.51 0 0 1-1.953-.02l.097.002zM172.339 826.88a27.572 27.572 0 0 0-2.072-.075c-15.863 0-28.723 12.86-28.723 28.723 0 .729.027 1.452.081 2.167l-.006-.095c2.981 14.45 15.6 25.16 30.72 25.16s27.739-10.71 30.685-24.957l.035-.203c.045-.603.071-1.307.071-2.016 0-15.892-12.883-28.774-28.774-28.774-.71 0-1.413.026-2.11.076l.093-.005zm98.765 0a27.572 27.572 0 0 0-2.072-.075c-15.863 0-28.723 12.86-28.723 28.723 0 .729.027 1.452.081 2.167l-.006-.095c2.981 14.45 15.6 25.16 30.72 25.16s27.739-10.71 30.685-24.957l.035-.203c.044-.598.07-1.296.07-1.999 0-15.892-12.883-28.774-28.774-28.774-.619 0-1.233.02-1.842.058l.083-.004zm98.765 0a27.572 27.572 0 0 0-2.072-.075c-15.863 0-28.723 12.86-28.723 28.723 0 .729.027 1.452.081 2.167l-.006-.095c2.981 14.45 15.6 25.16 30.72 25.16s27.739-10.71 30.685-24.957l.035-.203c.048-.62.075-1.343.075-2.072 0-15.863-12.86-28.723-28.723-28.723-.729 0-1.452.027-2.167.081l.095-.006zm478.003-450.56c-8.033-7.782-13.02-18.669-13.02-30.72s4.986-22.938 13.008-30.709l.011-.011c8.384-7.16 19.35-11.517 31.334-11.517s22.95 4.357 31.401 11.573l-.067-.056c8.033 7.782 13.02 18.669 13.02 30.72s-4.986 22.938-13.008 30.709l-.011.011c-8.384 7.16-19.35 11.517-31.334 11.517s-22.95-4.357-31.401-11.573l.067.056zm367.258 322.56H13.671l-.222.002c-7.493 0-13.568-6.075-13.568-13.568 0-.633.043-1.255.127-1.865L0 683.52V28.16c.882-51.096 42.511-92.178 93.734-92.178.653 0 1.304.007 1.953.02L95.59-64h1037.619a88.403 88.403 0 0 1 1.856-.018c51.224 0 92.852 41.082 93.733 92.096l.001.083v655.36c.076.539.119 1.161.119 1.794 0 7.493-6.075 13.568-13.568 13.568l-.233-.002h.012zM720.384 192h-503.91c-14.138 0-25.6 11.462-25.6 25.6s11.462 25.6 25.6 25.6h503.91c14.138 0 25.6-11.462 25.6-25.6s-11.462-25.6-25.6-25.6zm311.245 5.12c-5.023-4.753-11.822-7.675-19.302-7.675s-14.279 2.922-19.315 7.688l.013-.012-65.894 66.56c-13.955-7.75-30.604-12.312-48.318-12.312-26.923 0-51.385 10.538-69.486 27.714l.045-.042c-17.836 16.655-28.954 40.309-28.954 66.56s11.117 49.905 28.901 66.511l.053.049c17.417 18.912 42.299 30.719 69.939 30.719s52.522-11.807 69.879-30.653l.061-.067c17.801-16.758 28.885-40.477 28.885-66.785 0-16.885-4.566-32.703-12.531-46.287l.234.432 65.894-61.44a30.033 30.033 0 0 0 7.97-20.425c0-7.942-3.07-15.167-8.089-20.553l.017.018z"/><glyph unicode="" glyph-name="link" horiz-adv-x="1026" d="M624.64 560.64a234.704 234.704 0 0 1-39.168 31.7l-.921.556c-36.436 23.666-81.001 37.737-128.852 37.737-65.974 0-125.701-26.749-168.926-69.992L69.684 343.399C26.443 300.158-.302 240.422-.302 174.439c0-131.966 106.98-238.946 238.946-238.946 65.983 0 125.719 26.745 168.96 69.986l179.2 179.2c3.089 3.094 5 7.365 5 12.083 0 9.445-7.656 17.101-17.101 17.101h-6.894l-.859-.001c-39.056 0-76.297 7.77-110.261 21.849l1.911-.702c-1.931.823-4.177 1.302-6.535 1.302a16.997 16.997 0 0 1-12.101-5.039l-.001-.001-128.819-128.973c-18.539-18.545-44.154-30.016-72.448-30.016-56.575 0-102.439 45.863-102.439 102.439 0 28.281 11.461 53.886 29.991 72.423l217.907 217.754c18.527 18.509 44.112 29.956 72.371 29.956s53.844-11.447 72.372-29.957l-.001.001c12.494-11.771 29.377-19.004 47.949-19.004s35.455 7.234 47.984 19.037l-.035-.033c12.247 12.225 19.823 29.126 19.823 47.796 0 18.746-7.638 35.708-19.972 47.944l-.004.004zm329.216 329.165c-43.236 43.252-102.974 70.005-168.96 70.005s-125.724-26.753-168.959-70.004l-.001-.001-179.2-178.79a17.098 17.098 0 0 1-4.981-12.085c0-9.473 7.679-17.152 17.152-17.152l.285.002h6.488l.68.001c39.078 0 76.328-7.828 110.268-22.001l-1.892.701c1.915-.803 4.14-1.269 6.475-1.269 4.728 0 9.009 1.913 12.111 5.007l128.512 128.358c18.541 18.541 44.155 30.009 72.448 30.009 56.585 0 102.457-45.872 102.457-102.457 0-28.293-11.468-53.907-30.009-72.448L639.335 430.593c-18.527-18.509-44.112-29.956-72.371-29.956s-53.844 11.447-72.372 29.957l.001-.001c-12.494 11.771-29.377 19.004-47.949 19.004s-35.455-7.234-47.984-19.037l.035.033c-12.334-12.309-19.964-29.328-19.964-48.128s7.63-35.819 19.963-48.127l.001-.001c19.271-19.33 41.845-35.353 66.805-47.155l1.445-.615c3.584-1.69 7.168-3.072 10.752-4.608s7.373-2.714 10.906-4.045 7.373-2.611 10.957-3.635l10.24-2.714c6.81-1.69 13.619-3.072 20.48-4.25 7.362-1.171 16.189-2.033 25.146-2.392l.454-.014h13.005l10.24 1.229c3.738 0 7.68.973 12.083.973h5.837l11.776 1.741 5.427 1.024 9.933 1.997h1.843c43.591 11.184 81.061 33.111 110.744 62.821l217.244 217.244c43.313 43.246 70.107 103.025 70.107 169.062s-26.794 125.817-70.104 169.059l-.003.003z"/><glyph unicode="" glyph-name="lp-1" d="M879.821 626.688l-20.173 5.12 10.701 17.92c1.937 3.071 3.086 6.807 3.086 10.812 0 5.81-2.419 11.054-6.305 14.782l-.007.007-42.24 42.496a21.43 21.43 0 0 1-15.005 6.101c-4.062 0-7.86-1.126-11.1-3.083l.096.054-17.92-10.752-5.12 20.48c-2.49 9.16-10.7 15.798-20.472 15.872h-59.758c-9.78-.074-17.99-6.712-20.445-15.722l-.035-.15-5.12-20.48-17.869 10.752c-3.151 1.907-6.958 3.035-11.028 3.035a21.486 21.486 0 0 1-15.037-6.111l.005.005-42.24-42.496a20.426 20.426 0 0 1-6.28-14.758c0-4.017 1.157-7.764 3.155-10.927l-.05.084 10.701-17.92-20.224-5.12c-9.372-2.435-16.18-10.82-16.18-20.795l.001-.208v.011-59.392c.056-10.004 6.823-18.413 16.026-20.956l.154-.036 20.224-5.12-10.701-17.92c-1.949-3.078-3.105-6.825-3.105-10.842a20.42 20.42 0 0 1 6.274-14.752l.006-.006 42.24-42.496a21.483 21.483 0 0 1 15.032-6.107c4.07 0 7.877 1.128 11.125 3.089l-.097-.054 17.869 10.752 5.12-20.48c2.49-9.16 10.7-15.798 20.472-15.872h59.758c9.78.074 17.99 6.712 20.445 15.722l.035.15 5.12 20.48 17.92-10.752c3.144-1.903 6.943-3.029 11.004-3.029a21.433 21.433 0 0 1 15.01 6.105l-.005-.004 42.24 42.496c3.893 3.734 6.312 8.979 6.312 14.788 0 4.005-1.149 7.741-3.136 10.896l.05-.085-10.701 17.92 20.173 5.12c9.356 2.579 16.123 10.988 16.179 20.986v59.398l.001.197c0 9.975-6.808 18.36-16.031 20.762l-.149.033zM725.35 512c-35.346 0-64 28.654-64 64s28.654 64 64 64c35.346 0 64-28.654 64-64 0-35.346-28.654-64-64-64zM448 490.496H149.35l-.307.002c-11.605 0-21.015-9.393-21.043-20.992v-.003-.051c0-11.812 9.547-21.394 21.345-21.453h298.656c11.81.087 21.35 9.681 21.35 21.503v.001c-.028 11.601-9.439 20.994-21.043 20.994l-.324-.002H448zm-128-84.992H149.35c-11.876 0-21.504-9.628-21.504-21.504s9.628-21.504 21.504-21.504H320c11.876 0 21.504 9.628 21.504 21.504s-9.628 21.504-21.504 21.504zm618.65 468.992H384v64.051c0 11.812-9.547 21.394-21.345 21.453H234.649c-11.81-.087-21.35-9.681-21.35-21.503v-64.001H85.094c-46.971 0-85.058-38.034-85.145-84.984V192c.029-47.157 38.206-85.387 85.339-85.504H384c.089-2.199.14-4.781.14-7.374 0-39.751-11.921-76.717-32.383-107.52l.448.717c-7.832-8.515-19.027-13.832-31.464-13.832-.297 0-.592.003-.887.009l.044-.001-.307.002c-11.605 0-21.015-9.393-21.043-20.992v-.003-.001c0-11.822 9.54-21.416 21.342-21.503h384.008c11.81.087 21.35 9.681 21.35 21.503v.001c-.028 11.601-9.439 20.994-21.043 20.994l-.324-.002h.016a41.58 41.58 0 0 0-.904-.01c-12.403 0-23.563 5.32-31.323 13.801l-.029.032c-20.017 30.02-31.943 66.925-31.943 106.615 0 2.659.054 5.306.16 7.939l-.012-.378h298.701c47.189.058 85.424 38.311 85.453 85.501v597.507c-.087 46.959-38.175 84.992-85.145 84.992h-.216.011zM512 148.992h-.205c-23.753 0-43.008 19.255-43.008 43.008s19.255 43.008 43.008 43.008c23.753 0 43.008-19.255 43.008-43.008-.029-23.669-19.15-42.863-42.789-43.008H512zM85.35 277.504v512h128v-43.008h-42.701c-8.286-.015-15.464-4.748-18.99-11.655l-.056-.121c-1.456-2.743-2.311-5.997-2.311-9.451 0-4.756 1.621-9.134 4.342-12.61l-.034.045 128-171.008c4.04-5.004 10.174-8.178 17.05-8.178s13.009 3.174 17.017 8.136l.032.042 128 171.008a20.595 20.595 0 0 1 4.292 12.633c0 3.423-.83 6.653-2.299 9.499l.054-.116c-3.608 7.027-10.798 11.757-19.095 11.776h-42.653v43.008h554.65v-512H85.349z"/><glyph unicode="" glyph-name="lp" d="M879.821 626.688l-20.173 5.12 10.701 17.92c1.89 3.136 3.009 6.923 3.009 10.971a21.437 21.437 0 0 1-6.236 15.143l.001-.001-42.24 41.984a20.73 20.73 0 0 1-14.898 6.291c-4.122 0-7.963-1.2-11.194-3.269l-17.837-10.702-5.12 20.48c-2.49 9.16-10.7 15.798-20.472 15.872h-59.758c-9.78-.074-17.99-6.712-20.445-15.722l-.035-.15-5.12-20.48-17.869 10.752c-3.151 1.907-6.958 3.035-11.028 3.035a21.486 21.486 0 0 1-15.037-6.111l.005.005-42.24-41.984a21.382 21.382 0 0 1-6.216-15.101c0-4.065 1.131-7.866 3.095-11.106l-.054.095 10.701-17.92-20.224-5.12c-9.356-2.579-16.123-10.988-16.179-20.986v-59.398c.056-10.004 6.823-18.413 16.026-20.956l.154-.036 20.224-5.12-10.701-17.92c-1.949-3.078-3.105-6.825-3.105-10.842a20.42 20.42 0 0 1 6.274-14.752l.006-.006 42.24-42.496a21.483 21.483 0 0 1 15.032-6.107c4.07 0 7.877 1.128 11.125 3.089l-.097-.054 17.869 10.752 5.12-20.48c2.49-9.16 10.7-15.798 20.472-15.872h59.758c9.78.074 17.99 6.712 20.445 15.722l.035.15 5.12 20.48 17.92-10.752c3.144-1.903 6.943-3.029 11.004-3.029a21.433 21.433 0 0 1 15.01 6.105l-.005-.004 42.24 42.496c3.893 3.734 6.312 8.979 6.312 14.788 0 4.005-1.149 7.741-3.136 10.896l.05-.085-10.701 17.92 20.173 5.12c9.356 2.579 16.123 10.988 16.179 20.986v59.398c-.056 10.004-6.823 18.413-16.026 20.956l-.154.036zM725.35 512c-35.346 0-64 28.654-64 64s28.654 64 64 64c35.346 0 64-28.654 64-64 0-35.346-28.654-64-64-64zM448 490.496H149.35l-.307.002c-11.605 0-21.015-9.393-21.043-20.992v-.003-.051c0-11.812 9.547-21.394 21.345-21.453h298.656c11.81.087 21.35 9.681 21.35 21.503v.001c-.028 11.601-9.439 20.994-21.043 20.994l-.324-.002H448zm-128-84.992H149.35c-11.876 0-21.504-9.628-21.504-21.504s9.628-21.504 21.504-21.504H320c11.876 0 21.504 9.628 21.504 21.504s-9.628 21.504-21.504 21.504zm618.65 468.992H384v64.051c0 11.812-9.547 21.394-21.345 21.453H234.649c-11.81-.087-21.35-9.681-21.35-21.503v-64.001H85.094c-46.971 0-85.058-38.034-85.145-84.984V192c.029-47.157 38.206-85.387 85.339-85.504H384c.089-2.199.14-4.781.14-7.374 0-39.751-11.921-76.717-32.383-107.52l.448.717c-7.832-8.515-19.027-13.832-31.464-13.832-.297 0-.592.003-.887.009l.044-.001-.307.002c-11.605 0-21.015-9.393-21.043-20.992v-.003-.001c0-11.822 9.54-21.416 21.342-21.503h384.008c11.81.087 21.35 9.681 21.35 21.503v.001c-.028 11.601-9.439 20.994-21.043 20.994l-.324-.002h.016a41.58 41.58 0 0 0-.904-.01c-12.403 0-23.563 5.32-31.323 13.801l-.029.032c-20.017 30.02-31.943 66.925-31.943 106.615 0 2.659.054 5.306.16 7.939l-.012-.378h298.701c47.189.058 85.424 38.311 85.453 85.501v597.507c-.087 46.959-38.175 84.992-85.145 84.992h-.216.011zM512 148.992h-.205c-23.753 0-43.008 19.255-43.008 43.008s19.255 43.008 43.008 43.008c23.753 0 43.008-19.255 43.008-43.008-.029-23.669-19.15-42.863-42.789-43.008H512zM85.35 277.504v512h128v-43.008h-42.701c-8.286-.015-15.464-4.748-18.99-11.655l-.056-.121c-1.456-2.743-2.311-5.997-2.311-9.451 0-4.756 1.621-9.134 4.342-12.61l-.034.045 128-171.008c4.04-5.004 10.174-8.178 17.05-8.178s13.009 3.174 17.017 8.136l.032.042 128 171.008a20.595 20.595 0 0 1 4.292 12.633c0 3.423-.83 6.653-2.299 9.499l.054-.116c-3.608 7.027-10.798 11.757-19.095 11.776h-42.653v43.008h554.65v-512H85.349z"/><glyph unicode="" glyph-name="mail" horiz-adv-x="1365" d="M1243.409-64c.58-.01 1.264-.016 1.949-.016 29.832 0 57.116 10.909 78.08 28.956l-.157-.132-386.799 369.254-26.761-18.364q-43.418-30.652-70.519-47.787c-20.453-12.592-44.155-24.346-68.938-33.927l-3.015-1.025c-24.713-10.623-53.43-17.085-83.577-17.745l-.254-.004h-1.502c-30.4.657-59.118 7.12-85.33 18.318l1.499-.569c-27.828 10.611-51.552 22.364-73.964 36.056l1.943-1.103q-27.307 17.135-70.451 47.787l-26.692 18.432L41.986-35.192c20.834-17.916 48.142-28.824 77.999-28.824.683 0 1.364.006 2.044.017l-.102-.001h1121.485zM76.937 566.579C47.789 585.124 22.55 606.001.17 629.614l-.169.18V68.096l340.924 325.427q-101.99 68.13-263.987 173.056zm1212.211 0Q1133.5 466.022 1024.546 393.386l340.787-325.291v561.698c-22.448-23.612-47.42-44.463-74.589-62.235l-1.596-.98zM1243.409 960H121.924c-1.997.128-4.33.201-6.68.201-33.304 0-63.182-14.667-83.528-37.893l-.11-.128C11.866 897.969-.092 866.733-.092 832.705c0-1.784.033-3.561.098-5.33l-.007.255c2.708-38.43 18.136-72.812 42.05-99.411l-.134.152c25.034-32.806 54.502-60.624 87.848-83.135l1.309-.833q25.873-17.545 156.194-103.629l122.88-81.374c29.901-19.866 55.637-37.069 76.937-51.405l11.264-7.782 21.026-14.473q24.781-16.998 40.96-27.307c10.923-6.827 24.098-14.882 39.595-23.552 12.514-7.412 27.002-14.065 42.195-19.184l1.632-.477c11.308-4.023 24.358-6.497 37.94-6.824l.153-.003h1.502c13.735.33 26.784 2.804 38.976 7.098l-.884-.271c16.825 5.596 31.313 12.249 44.911 20.251l-1.084-.59c15.497 8.67 28.672 16.589 39.663 23.552s24.576 16.316 40.96 27.307l21.026 14.473 11.401 7.714c16.521 11.059 42.394 28.126 77.073 51.2q94.686 62.874 279.484 185.207c36.577 24.345 67.394 54.053 92.197 88.391l.714 1.039c22.882 30.224 36.832 68.321 37.341 109.654l.001.119.002.709c0 32.194-13.928 61.134-36.087 81.125l-.097.086c-21.758 21.361-51.606 34.547-84.533 34.547-.353 0-.706-.002-1.059-.005h.054z"/><glyph unicode="" glyph-name="pen" horiz-adv-x="1075" d="M1060.147 849.408l-96.205 95.744c-9.247 9.156-21.972 14.812-36.019 14.812s-26.773-5.657-36.023-14.817l.004.004-76.8-76.288 168.192-166.912 76.8 76.288c9.221 9.064 14.934 21.669 14.934 35.609 0 13.915-5.693 26.5-14.877 35.553l-.006.006zM315.597 373.76L483.84 206.848 947.2 666.112 779.008 833.024zm-36.301-35.84l-35.84-202.24 204.134 35.328zm465.05-292.352H110.08v629.76h447.59l110.336 109.568H71.115C32 784.896.261 753.318 0 714.265V6.656C.261-32.422 32.001-64 71.115-64h712.298c39.115 0 70.854 31.578 71.115 70.631v505.881l-110.08-109.056V45.568z"/><glyph unicode="" glyph-name="peoples" horiz-adv-x="1229" d="M741.53 784.384c56.834-35.468 96.029-94.643 103.792-163.341l.093-1.011c21.768-10.219 47.273-16.182 74.172-16.182 98.347 0 178.074 79.726 178.074 178.074s-79.726 178.074-178.074 178.074c-97.482 0-176.669-78.33-178.055-175.482l-.001-.131zM623.411 418.816c97.771 1.013 176.64 80.508 176.64 178.423 0 98.545-79.887 178.432-178.432 178.432-98.452 0-178.281-79.736-178.432-178.153v-.014c.29-98.75 80.409-178.691 179.199-178.691l1.08.003h-.056zm76.493-12.288H546.97l-.977.002c-126.404 0-228.969-102.064-229.781-228.277V-6.657l.461-3.072 12.902-4.096c93.582-30.851 201.35-49.126 313.237-50.172l.517-.004c6.261-.218 13.619-.341 21.006-.341 91.366 0 178.303 18.959 257.093 53.157l-4.179-1.615 12.083 6.144h1.28v184.832c-.783 126.284-103.337 228.354-229.73 228.354l-1.03-.002h.053zm298.138 184.32H846.336c-1.799-60.405-27.74-114.42-68.457-152.994l-.1-.094c113.633-33.852 195.188-137.106 195.84-259.508v-57.42c87.527.878 170.534 19.246 246.011 51.764l-4.143-1.588 12.032 6.144h1.28v185.344c-.812 126.29-103.377 228.354-229.781 228.354l-1.03-.002h.053zM307.2 603.136h.012c35.535 0 68.663 10.302 96.562 28.081l-.727-.433c9.479 57.672 40.042 106.885 83.357 140.421l.509.379c0 3.072.461 6.656.461 9.728.007.609.012 1.328.012 2.048 0 99.535-80.689 180.224-180.224 180.224S126.938 882.895 126.938 783.36s80.689-180.224 180.224-180.224h.042-.002zM469.043 437.76c-40.567 38.441-66.435 92.043-68.495 151.692l-.01.372c-5.632.512-11.162 1.024-16.896 1.024H230.708l-.977.002C103.327 590.85.762 488.786-.05 362.573V177.151l.461-2.56 12.902-4.096c76.333-25.007 164.883-42.339 256.503-48.461l3.337-.179v56.32c.695 122.479 82.256 225.721 193.967 259.09l1.925.494z"/><glyph unicode="" glyph-name="portfolio" horiz-adv-x="1280" d="M702.669 330.24v30.72c0 34.668-28.104 62.771-62.771 62.771s-62.771-28.104-62.771-62.771v-30.72c0-34.668 28.104-62.771 62.771-62.771s62.771 28.104 62.771 62.771zm43.008-30.72c-14.952-44.986-56.657-76.854-105.805-76.854s-90.853 31.868-105.578 76.069l-.227.786H101.683c-.554-.006-1.208-.009-1.862-.009-26.87 0-52.42 5.656-75.523 15.841l1.2-.472v-281.6C27.839-20.934 72.36-64 126.939-64l.472.001H1152.36l.496-.001c54.569 0 99.078 43.072 101.384 97.073l.007.209v281.6c-21.894-9.714-47.432-15.37-74.292-15.37-.666 0-1.331.003-1.995.01l.101-.001H745.677zm428.134 501.76H929.126c-15.684 90.666-93.75 158.753-187.719 158.753-1.253 0-2.504-.012-3.751-.036l.187.003H541.798c-1.048.021-2.283.033-3.521.033-93.979 0-172.056-68.083-187.599-157.616l-.163-1.136H105.881c-.656.015-1.43.023-2.205.023-55.058 0-100.113-42.832-103.66-96.994L0 704V473.6v-.001C0 417.225 45.555 371.491 101.86 371.2h427.599c1.383 30.128 14.095 57.043 33.941 76.796l.004.004h1.946c4.403 5.12 9.011 5.12 14.029 10.24 1.792 0 3.789 0 5.683 5.12 4.096 0 8.192 5.12 12.646 5.12a11.255 11.255 0 0 1 10.879 5.076l.027.044h62.976c2.02-3.153 5.506-5.212 9.472-5.212.505 0 1.003.033 1.491.098l-.057-.006c4.454 0 8.499-5.12 12.646-5.12 1.843-5.12 3.891-5.12 5.734-5.12 5.12-5.12 9.574-5.12 13.978-10.24h1.946c19.836-19.761 32.531-46.678 33.885-76.55l.009-.25h427.571c56.333.291 101.888 46.025 101.888 102.399V704c-3.558 54.476-48.615 97.314-103.677 97.314-.937 0-1.872-.012-2.803-.037l.137.003zm-725.145 0c14.498 38.462 50.552 65.527 93.06 66.558l.124.002h196.045c42.621-1.025 78.665-28.096 92.901-65.859l.232-.701H448.666z"/><glyph unicode="" glyph-name="present" horiz-adv-x="1229" d="M521.216 467.456L27.955 190.464c-16.862-9.94-27.998-28.01-27.998-48.681 0-10.981 3.143-21.228 8.577-29.89l-.138.235c8.807-15.175 24.98-25.217 43.498-25.217a49.923 49.923 0 0 1 32.501 11.964l-.07-.058s437.914 369.152 436.89 368.64zM102.4 960h1126.4V839.168H102.4V960zm683.264-845.824L817.766-64H952.32l-32.307 178.176H785.408zM378.88-64h134.605l31.078 178.176H410.214zM179.2 342.528l312.32 175.104c9.027 5.668 20 9.03 31.759 9.03 33.339 0 60.365-27.026 60.365-60.365 0-18.36-8.196-34.805-21.13-45.876l-.082-.069-296.243-247.296h803.84c45.582 1.479 81.972 38.786 81.972 84.592 0 1.041-.019 2.078-.056 3.11l.004-.149v519.68h-972.8v-437.76zm816.845 339.968c.687 16.223 14.006 29.115 30.336 29.115s29.649-12.892 30.334-29.053l.002-.062v-353.28c-.687-16.223-14.006-29.115-30.336-29.115s-29.649 12.892-30.334 29.053l-.002.062v353.28zM848.691 611.84c0 16.74 13.57 30.31 30.31 30.31s30.31-13.57 30.31-30.31V329.216c0-16.74-13.57-30.31-30.31-30.31s-30.31 13.57-30.31 30.31V611.84zm-147.149-56.32c.687 16.223 14.006 29.115 30.336 29.115s29.649-12.892 30.334-29.053l.002-.062V329.216c-.687-16.223-14.006-29.115-30.336-29.115s-29.649 12.892-30.334 29.053l-.002.062V555.52z"/><glyph unicode="" glyph-name="risk" horiz-adv-x="1126" d="M942.746-64H181.887C80.797-64-1.153 17.95-1.153 119.04c0 33.645 9.077 65.169 24.917 92.258l-.468-.866 380.365 657.92c32.306 55.129 91.258 91.564 158.72 91.564s126.414-36.435 158.252-90.701l.468-.863 380.365-657.92c15.371-26.223 24.449-57.747 24.449-91.392 0-101.09-81.95-183.04-183.04-183.04h-.136.007zM562.381 907.264c-.358.004-.782.006-1.206.006-47.69 0-89.329-25.904-111.615-64.41l-.331-.62L68.864 184.32c-11.021-18.72-17.532-41.24-17.532-65.281 0-71.965 58.339-130.304 130.304-130.304l.4.001H943.073c71.965 0 130.304 58.339 130.304 130.304 0 24.04-6.51 46.56-17.864 65.893l.332-.612-380.365 657.92c-22.617 39.125-64.256 65.029-111.946 65.029-.406 0-.812-.002-1.217-.006h.062zm459.827-726.016L655.462 815.616c-18.944 32.333-53.517 53.702-93.082 53.702s-74.137-21.369-92.807-53.196l-.275-.506-366.899-634.368C93.525 165.949 88.288 147.586 88.288 128c0-59.267 47.952-107.334 107.175-107.519h733.509c59.307.099 107.346 48.199 107.346 107.52 0 19.586-5.237 37.95-14.388 53.766l.276-.518zM495.923 617.984c0 36.76 29.8 66.56 66.56 66.56s66.56-29.8 66.56-66.56V402.432c0-36.76-29.8-66.56-66.56-66.56s-66.56 29.8-66.56 66.56v215.552zm66.56-477.696h-.051c-37.608 0-68.096 30.488-68.096 68.096s30.488 68.096 68.096 68.096c37.608 0 68.096-30.488 68.096-68.096-.116-37.58-30.564-68.009-68.139-68.096h-.008z"/><glyph unicode="" glyph-name="ruble-1" horiz-adv-x="922" d="M23.04 99.84h161.28V-38.4a26.73 26.73 0 0 1-.114-2.514 27.59 27.59 0 0 1 6.648-18.004l-.032.038a18.777 18.777 0 0 1 13.218-5.415c1.173 0 2.321.107 3.435.312l-.116-.018h120.32c.906-.154 1.95-.243 3.014-.243a18.78 18.78 0 0 1 13.169 5.366l-.004-.003a26.812 26.812 0 0 1 6.922 18.025c0 .864-.041 1.719-.12 2.562l.008-.108v138.24h363.52a18.358 18.358 0 0 1 3.319-.295c5.151 0 9.819 2.067 13.221 5.417l-.002-.002a23.666 23.666 0 0 1 6.501 15.311l.002.049v97.28a23.698 23.698 0 0 1-6.512 15.37l.01-.01a18.777 18.777 0 0 1-13.218 5.415c-1.173 0-2.321-.107-3.435-.312l.116.018H350.67v87.04h244.787c3.033-.099 6.599-.155 10.177-.155 86.784 0 165.832 33.126 225.187 87.424l-.254-.229c56.422 60.095 91.083 141.2 91.083 230.4s-34.661 170.304-91.25 230.579l.167-.179c-59.101 54.069-138.149 87.195-224.933 87.195-3.579 0-7.145-.056-10.696-.168l.519.013H207.361c-.996.185-2.141.291-3.312.291a18.937 18.937 0 0 1-13.281-5.414l.003.003a27.755 27.755 0 0 1-6.564-17.978c0-.881.041-1.752.121-2.612l-.008.11v-455.68H23.04c-.996.185-2.141.291-3.312.291a18.937 18.937 0 0 1-13.281-5.414l.003.003A23.861 23.861 0 0 1 .001 458.29l-.002-.051v-112.64a23.906 23.906 0 0 1 6.463-15.373l-.012.013a18.93 18.93 0 0 1 13.277-5.411c1.17 0 2.316.106 3.428.308l-.116-.018h161.28v-87.04H23.039c-.996.185-2.141.291-3.312.291a18.937 18.937 0 0 1-13.281-5.414l.003.003A23.861 23.861 0 0 1 0 217.649l-.002-.051v-97.28a23.906 23.906 0 0 1 6.463-15.373l-.012.013a18.93 18.93 0 0 1 13.277-5.411c1.17 0 2.316.106 3.428.308l-.116-.018zM350.72 806.4h230.4c2.131.097 4.63.152 7.142.152 44.892 0 85.672-17.609 115.808-46.297l-.069.066c28.954-29.093 46.853-69.21 46.853-113.508 0-1.495-.02-2.985-.061-4.471l.005.219c.114-2.214.18-4.806.18-7.414 0-43.327-17.999-82.45-46.928-110.3l-.048-.046c-30.067-28.623-70.846-46.232-115.738-46.232-2.512 0-5.011.055-7.496.164l.354-.012h-230.4v327.68z"/><glyph unicode="" glyph-name="ruble" horiz-adv-x="922" d="M23.04 98.816h161.28V-40.96a21.594 21.594 0 0 1 6.499-16.38l.004-.004c3.917-4.118 9.437-6.679 15.555-6.679.346 0 .69.008 1.031.024l-.048-.002h120.32a21.748 21.748 0 0 1 16.173 6.65l.006.006c4.202 3.885 6.825 9.427 6.825 15.58 0 .283-.006.564-.016.844l.001-.04V98.815h363.52a21.39 21.39 0 0 1 16.529 6.647l.009.009a22.76 22.76 0 0 1 6.501 16.942l.002-.046v92.672a22 22 0 0 1-6.5 16.895l-.002.002c-3.917 4.118-9.437 6.679-15.555 6.679-.346 0-.69-.008-1.031-.024l.048.002h-363.52v86.016h244.787c3.917-.171 8.511-.268 13.128-.268 86.133 0 164.36 33.846 222.108 88.963l-.126-.119c56.404 59.634 91.082 140.327 91.082 229.12s-34.678 169.487-91.229 229.277l.147-.157c-57.922 54.989-136.404 88.811-222.786 88.811-4.334 0-8.648-.085-12.941-.254l.617.019H207.362c-.186.006-.404.009-.623.009-12.385 0-22.426-10.04-22.426-22.426 0-.219.003-.437.009-.655l-.001.032V479.233H23.041a21.545 21.545 0 0 1-16.581-6.648l-.008-.008A23.412 23.412 0 0 1 0 456.402l.001-.22v.011-108.544a23.775 23.775 0 0 1 6.463-16.908l-.012.012a23.15 23.15 0 0 1 16.63-6.143l-.042-.001h161.28v-86.016H23.04a21.545 21.545 0 0 1-16.581-6.648l-.008-.008a22.15 22.15 0 0 1-6.484-15.688c0-.425.012-.847.035-1.266l-.003.058v-92.672a22.913 22.913 0 0 1 6.457-16.902l-.006.006c3.941-4.118 9.481-6.678 15.62-6.678.341 0 .68.008 1.017.024l-.048-.002zm327.68 706.048h230.4a163.3 163.3 0 0 0 7.643.172c44.557 0 85.097-17.201 115.342-45.325l-.105.096c28.979-30.654 46.794-72.127 46.794-117.76s-17.815-87.106-46.871-117.841l.076.081c-30.14-28.028-70.68-45.228-115.237-45.228-2.688 0-5.361.063-8.019.186l.376-.014h-230.4v325.632z"/><glyph unicode="" glyph-name="seo" d="M502.17 504.32c-6.254 3.356-13.683 5.328-21.572 5.328-1.544 0-3.071-.076-4.577-.223l.191.015a90.71 90.71 0 0 1-1.802.017c-52.963 0-95.898-42.935-95.898-95.898 0-.492.004-.983.011-1.473l-.001.074c1.251-52.982 44.498-95.453 97.664-95.453s96.412 42.471 97.662 95.337l.002.116c.033.82.051 1.783.051 2.75 0 8.169-1.33 16.027-3.786 23.369l.151-.52 272.026 271.36 44.032-5.12 137.677 138.24-104.141 15.36-13.875 102.4-137.677-138.24 5.888-40.96zm-15.36 97.28l80.486 76.8c-28.229 10.879-60.89 17.181-95.023 17.181-77.03 0-146.564-32.096-195.957-83.644l-.092-.097c-51.17-51.072-82.826-121.679-82.826-199.68s31.656-148.608 82.821-199.676l.004-.004c51.812-49.906 122.386-80.648 200.141-80.648s148.328 30.742 200.231 80.734l-.09-.086c51.268 51.351 82.972 122.247 82.972 200.548 0 32.679-5.522 64.068-15.684 93.285l.603-1.993-80.486-81.92c.176-3.047.277-6.61.277-10.197 0-103.805-84.15-187.955-187.955-187.955s-187.955 84.15-187.955 187.955c0 51.988 21.107 99.047 55.22 133.073l.004.004c34.998 34.871 83.279 56.431 136.596 56.431 2.307 0 4.604-.04 6.891-.12l-.332.009zm326.912-30.72c22.066-46.154 34.955-100.318 34.955-157.493 0-205.602-166.673-372.275-372.275-372.275-103.243 0-196.67 42.027-264.106 109.907l-.02.02c-67.619 67.41-109.457 160.648-109.457 263.658 0 205.602 166.673 372.275 372.275 372.275 58.765 0 114.349-13.616 163.771-37.865l-2.192.972 76.8 76.8C645.48 865.572 564.09 888.38 477.372 888.38c-131.916 0-251.505-52.781-338.8-138.377l.078.076C51.596 663.549-2.284 543.728-2.284 411.323c0-263.768 213.826-477.594 477.594-477.594s477.594 213.826 477.594 477.594c0 86.933-23.227 168.442-63.813 238.658l1.227-2.302z"/><glyph unicode="" glyph-name="services-1" d="M943.718 960H80.23C35.937 959.913.058 924.015 0 879.724V16.332c0-44.331 35.908-80.275 80.225-80.333h863.494c44.345.029 80.282 35.984 80.282 80.333v863.386c-.029 44.327-35.955 80.252-80.279 80.282h-.003zm-54.374-91.443c19.002 0 34.406-15.404 34.406-34.406s-15.404-34.406-34.406-34.406-34.406 15.404-34.406 34.406v.051c0 19.002 15.404 34.406 34.406 34.406zm-123.238 0h.051c19.002 0 34.406-15.404 34.406-34.406s-15.404-34.406-34.406-34.406-34.406 15.404-34.406 34.406v.051c0 18.984 15.375 34.377 34.352 34.406h.003zM573.798 27.75H91.699v686.49h482.099V27.699zm358.4 0H609.28v686.49h323.174V27.699zm-36.3 486.4H650.906v152.422H896V514.15zm0-212.07H650.906v152.576H896V302.234zm0-215.398H650.906v152.474H896V86.682z"/><glyph unicode="" glyph-name="services" d="M943.718 960H80.23c-44.358-.197-80.241-36.202-80.241-80.588 0-.468.004-.936.012-1.402l-.001.07V17.92a77.754 77.754 0 0 1-.011-1.332c0-44.386 35.883-80.391 80.223-80.588h863.507c44.386.198 80.292 36.225 80.292 80.639 0 .45-.004.9-.011 1.348l.001-.068v860.16c.006.381.01.83.01 1.281 0 44.414-35.906 80.441-80.273 80.639h-.019zm-54.374-92.16c19.047-.164 34.425-15.642 34.425-34.712 0-.397-.007-.792-.02-1.185l.002.057c-1.96-17.429-16.616-30.852-34.406-30.852s-32.446 13.423-34.392 30.694l-.014.158c-.012.336-.018.731-.018 1.128 0 19.07 15.378 34.549 34.409 34.712h.016zm-123.238 0c19.047-.164 34.425-15.642 34.425-34.712 0-.397-.007-.792-.02-1.185l.002.057c-2.067-17.322-16.67-30.624-34.381-30.624s-32.314 13.302-34.365 30.46l-.016.164c-.013.351-.02.764-.02 1.179 0 19.043 15.356 34.499 34.36 34.661h.015zM573.798 28.16H91.699v686.08h482.099V28.16zm358.4 0H609.28v686.08h323.174V28.16zm-36.3 486.4H650.906v153.6H896v-153.6zm0-209.92H650.906v148.48H896V304.64zm0-220.16H650.906v153.6H896V84.48z"/><glyph unicode="" glyph-name="settings" horiz-adv-x="1026" d="M1020.723 504.832c-3.759 14.534-16.755 25.095-32.218 25.095-.247 0-.494-.003-.74-.008l.037.001c-.444-.006-.968-.01-1.493-.01-62.379 0-112.947 50.568-112.947 112.947 0 33.13 14.264 62.928 36.985 83.588l.092.082c5.693 5.281 9.243 12.802 9.243 21.153a28.698 28.698 0 0 1-6.167 17.82l.047-.062c-24.33 30.5-50.936 57.366-80.143 81.163l-.958.757c-4.837 3.884-11.051 6.234-17.814 6.234-8.345 0-15.855-3.578-21.079-9.284l-.019-.022c-21.493-22.548-51.757-36.569-85.296-36.569-15.249 0-29.821 2.898-43.195 8.174l.798-.278c-41.101 17.648-69.363 57.776-69.363 104.506 0 2.321.07 4.626.207 6.913l-.015-.314c.033.508.051 1.101.051 1.698 0 14.488-10.941 26.421-25.012 27.986l-.127.011c-17.966 2.244-38.759 3.525-59.851 3.525a515.374 515.374 0 0 1-57.671-3.226l2.322.212c-14.434-1.421-25.618-13.497-25.618-28.185 0-.351.006-.701.019-1.049l-.001.05c.048-1.236.075-2.688.075-4.146 0-47.192-28.605-87.702-69.422-105.139l-.746-.283c-12.246-4.692-26.411-7.409-41.211-7.409-33.626 0-63.976 14.027-85.518 36.549l-.042.044c-5.256 5.613-12.712 9.111-20.985 9.111a28.599 28.599 0 0 1-17.683-6.087l.063.048c-30.954-24.448-58.137-51.338-82.085-80.953l-.757-.967c-3.895-4.835-6.253-11.052-6.253-17.819 0-8.347 3.586-15.857 9.302-21.072l.022-.02c22.969-20.774 37.339-50.685 37.339-83.953 0-15.713-3.206-30.677-8.998-44.273l.28.739c-18.939-41.425-60.019-69.69-107.701-69.69-1.305 0-2.604.021-3.899.063l.189-.005c-.586.044-1.27.069-1.96.069-14.403 0-26.238-10.993-27.574-25.046l-.009-.111c-2.103-17.441-3.303-37.636-3.303-58.112s1.2-40.671 3.533-60.52l-.23 2.408c4.049-14.576 17.201-25.097 32.811-25.097.273 0 .545.003.816.01l-.04-.001c.313.003.682.005 1.051.005 46.891 0 87.089-28.652 104.043-69.403l.275-.745c5.249-12.658 8.298-27.358 8.298-42.771 0-33.275-14.209-63.231-36.89-84.133l-.08-.072c-5.662-5.178-9.2-12.598-9.2-20.844a28.09 28.09 0 0 1 6.172-17.612l-.043.056c24.189-30.597 50.775-57.476 80.044-81.172l.955-.748c4.845-3.887 11.067-6.239 17.838-6.239 8.355 0 15.874 3.58 21.106 9.289l.019.021c21.49 22.531 51.743 36.54 85.268 36.54 15.221 0 29.767-2.888 43.121-8.145l-.799.277c41.154-17.609 69.465-57.756 69.465-104.515 0-2.318-.07-4.62-.207-6.904l.015.314a27.25 27.25 0 0 1-.045-1.602c0-14.525 10.957-26.49 25.056-28.082l.129-.012c17.103-2.284 36.877-3.589 56.956-3.589.712 0 1.424.002 2.136.005h-.109.129c19.796 0 39.33 1.116 58.545 3.288l-2.355-.216c14.442 1.473 25.614 13.57 25.614 28.278 0 .319-.005.636-.016.953l.001-.046c-.051 1.273-.08 2.767-.08 4.268 0 47.146 28.589 87.616 69.376 105.018l.745.283c12.253 4.702 26.428 7.426 41.239 7.426 33.621 0 63.964-14.035 85.49-36.565l.043-.045c5.265-5.617 12.73-9.116 21.012-9.116a28.651 28.651 0 0 1 17.707 6.092l-.063-.048c30.913 24.472 58.077 51.36 82.031 80.951l.759.969c3.931 4.835 6.312 11.068 6.312 17.857 0 8.337-3.591 15.836-9.31 21.034l-.023.021c-23.002 20.793-37.394 50.74-37.394 84.048 0 15.676 3.188 30.607 8.95 44.181l-.279-.741c17.925 41.031 57.998 69.262 104.708 69.632h6.397a27.024 27.024 0 0 1 2.136-.082c14.458 0 26.353 10.976 27.806 25.05l.01.12c2.066 17.239 3.246 37.203 3.246 57.442 0 20.713-1.235 41.138-3.635 61.205l.236-2.423zM512.819 275.968c-94.304 0-170.752 76.448-170.752 170.752s76.448 170.752 170.752 170.752c94.214 0 170.606-76.302 170.752-170.482v-.014c-.087-94.32-76.452-170.775-170.73-171.008h-.022z"/><glyph unicode="" glyph-name="smm" d="M513.331 744.448c.701.016 1.527.026 2.355.026 59.382 0 107.52-48.138 107.52-107.52s-48.138-107.52-107.52-107.52c-59.373 0-107.505 48.124-107.52 107.493v.001c-.004.337-.006.735-.006 1.133 0 58.33 46.94 105.696 105.106 106.386l.065.001zM331.725 318.464h363.213c.033 1.284.051 2.796.051 4.313 0 100.327-81.331 181.658-181.658 181.658s-181.658-81.331-181.658-181.658c0-1.516.019-3.028.056-4.536l-.004.223zM103.936 752.64c10.018.055 19.667 1.547 28.779 4.282l-.721-.186 109.107-127.488 48.538 41.984-103.987 121.344c13.849 17.373 22.221 39.646 22.221 63.873v.134-.007c0 57.402-46.534 103.936-103.936 103.936S.001 913.978.001 856.576c0-57.402 46.534-103.936 103.936-103.936zm0 143.36c21.552-.289 38.912-17.827 38.912-39.421 0-21.773-17.651-39.424-39.424-39.424-21.772 0-39.422 17.649-39.424 39.42.26 21.829 18.016 39.424 39.882 39.424h.057-.003zm0-960h.001c57.222 0 103.644 46.242 103.935 103.396v.028l.001.518c0 24.101-8.376 46.245-22.377 63.681l.154-.199L289.637 225.28l-48.538 41.472-109.107-127.488c-8.391 2.549-18.039 4.041-28.028 4.096h-.029C46.674 143.36.255 96.941.255 39.68S46.674-64 103.935-64zm0 143.36c21.804-.146 39.423-17.855 39.423-39.679 0-21.915-17.765-39.68-39.68-39.68C81.855.001 64.145 17.62 64 39.41v.014c.029 22.044 17.892 39.907 39.933 39.936h.003zm678.963 549.888l109.107 127.488c8.391-2.549 18.039-4.041 28.028-4.096h.029c57.151.146 103.424 46.509 103.424 103.68 0 57.261-46.419 103.68-103.68 103.68-57.171 0-103.534-46.273-103.68-103.41v-.014-.127c0-24.228 8.372-46.5 22.381-64.082l-.161.209-104.038-121.344zM920.064 896c21.552-.289 38.912-17.827 38.912-39.421 0-21.773-17.651-39.424-39.424-39.424s-39.422 17.649-39.424 39.42c.26 21.829 18.016 39.424 39.882 39.424h.057-.003zm-81.92-792.576c-13.846-17.237-22.222-39.381-22.222-63.482l.001-.546v.028c0-57.402 46.534-103.936 103.936-103.936s103.936 46.534 103.936 103.936c0 57.402-46.534 103.936-103.936 103.936-10.018-.055-19.667-1.547-28.779-4.282l.721.186-109.107 127.488-48.589-41.472zm121.651-64c0-22.056-17.88-39.936-39.936-39.936s-39.936 17.88-39.936 39.936 17.88 39.936 39.936 39.936l.256.001c22.028 0 39.885-17.857 39.885-39.885v-.055.003z"/><glyph unicode="" glyph-name="steps" horiz-adv-x="1280" d="M1253.325-10.24h-26.675v781.875c0 14.676-11.897 26.573-26.573 26.573H986.574c-14.676 0-26.573-11.897-26.573-26.573v-.054.003-135.168H773.019c-14.676 0-26.573-11.897-26.573-26.573v-.054.003-134.656H559.771c-14.741-.173-26.625-12.164-26.625-26.929l.001-.218V448 313.344H346.472c-14.769-.173-26.676-12.187-26.676-26.981v-.164.008-134.656H133.117c-14.732 0-26.675-11.943-26.675-26.675 0-.162.001-.324.004-.485v.024-134.656H26.37c-14.676 0-26.573-11.897-26.573-26.573v-.054-.152c0-14.794 11.906-26.807 26.659-26.981h1226.666c14.769.173 26.676 12.187 26.676 26.981v.164-.008.051c0 14.64-11.839 26.514-26.465 26.573h-.006zM186.675 528.896l.34-.002a25.507 25.507 0 0 1 17.241 6.676l-.02-.018L556.953 847.36l-22.272-67.584c-.85-2.501-1.341-5.381-1.341-8.376 0-11.742 7.543-21.722 18.049-25.359l.188-.057c2.493-.96 5.377-1.522 8.391-1.536h.125c11.814 0 21.845 7.637 25.426 18.243l.055.189 53.299 161.792c.847 2.523 1.336 5.429 1.336 8.449a27.285 27.285 0 0 1-6.488 17.703l.033-.04c-4.853 5.603-11.979 9.127-19.927 9.127-1.661 0-3.287-.154-4.863-.448l.163.025-160-26.624c-12.795-2.272-22.386-13.31-22.386-26.588 0-14.902 12.08-26.982 26.982-26.982 1.468 0 2.909.117 4.313.343l-.154-.02 67.43 11.264-356.045-314.88c-5.608-4.959-9.127-12.172-9.127-20.206a26.829 26.829 0 0 1 6.645-17.714l-.027.032c4.837-5.634 11.959-9.189 19.912-9.216h.005z"/><glyph unicode="" glyph-name="tz" d="M570.829 777.728H221.338c-25.732 0-46.592-20.86-46.592-46.592s20.86-46.592 46.592-46.592h349.491c25.732 0 46.592 20.86 46.592 46.592s-20.86 46.592-46.592 46.592zm46.592-221.184c-.029 25.72-20.872 46.563-46.589 46.592H221.338c-25.732 0-46.592-20.86-46.592-46.592s20.86-46.592 46.592-46.592h349.491c25.72.029 46.563 20.872 46.592 46.589v.003zM396.134 335.36c25.732 0 46.592 20.86 46.592 46.592s-20.86 46.592-46.592 46.592H221.337c-25.732 0-46.592-20.86-46.592-46.592s20.86-46.592 46.592-46.592h174.797zm351.744-158.208l-48.896-32.256V29.184H93.184v837.632h605.798V683.008l93.184 161.28v69.12c-.029 25.72-20.872 46.563-46.589 46.592H46.592C20.872 959.971.029 939.128 0 913.411V-17.408C.029-43.128 20.872-63.971 46.589-64h698.985c25.731.029 46.585 20.865 46.643 46.586v256.518l-22.272-38.4c-5.675-9.479-13.069-17.346-21.818-23.389l-.249-.163zm275.559 567.296c-12.435 33.995-37.451 60.86-69.27 75.438l-.822.338c-21.763 15.606-48.932 24.955-78.285 24.955-8.012 0-15.862-.697-23.492-2.033l.811.118c-5.613-1.979-10.175-5.762-13.096-10.64l-.062-.112-291.226-503.808c-1.769-2.934-2.901-6.434-3.12-10.179l-.003-.061-10.906-181.76a22.04 22.04 0 0 1-.047-1.465c0-8.531 4.626-15.982 11.507-19.98l.11-.059c3.393-2.013 7.48-3.203 11.844-3.203 4.709 0 9.095 1.385 12.772 3.77l-.091-.056 152.166 100.352c3 2.014 5.468 4.581 7.312 7.574l.061.106 291.226 503.808c1.981 3.403 3.151 7.49 3.151 11.85 0 1.788-.197 3.529-.569 5.205l.03-.159zm-394.65-548.352c-7.635 6.329-16.138 12.254-25.119 17.445l-.891.475c-9.472 5.12-18.995 9.728-28.262 13.824l3.226 54.272c19.951-3.357 37.797-10.165 53.712-19.833l-.669.377c17.14-9.514 31.611-21.667 43.414-36.089l.209-.263zM324.864 120.32c3.425-7.965 10.709-13.683 19.433-14.835l.125-.013a27.555 27.555 0 0 1 4.366-.338 28.24 28.24 0 0 1 16.807 5.513l-.078-.055c35.584 17.408 83.712-3.072 121.805-3.072 9.614 0 17.408 7.794 17.408 17.408s-7.794 17.408-17.408 17.408c-25.987 3.26-56.061 5.12-86.569 5.12-13.637 0-27.188-.372-40.642-1.106l1.873.082a22.151 22.151 0 0 1-3.737 10.831l.05-.079c-4.537 9.869-14.338 16.599-25.71 16.599-1.224 0-2.431-.078-3.614-.229l.14.015c-.717 1.536-1.382 3.072-2.355 5.12-2.508 3.794-6.318 6.553-10.781 7.654l-.124.026c9.094 12.047 14.565 27.272 14.565 43.774 0 6.645-.887 13.083-2.549 19.202l.118-.512c-3.194 5.241-8.873 8.69-15.358 8.704h-.002c-24.127-5.547-44.394-19.309-58.174-38.122l-.194-.278a1113.56 1113.56 0 0 1-100.281-117.328l-2.119-2.992c-13.722-17.408 16.64-34.816 30.157-17.408 29.869 39.047 59.58 73.595 91.107 106.383l-.381-.399c-7.782-12.8-16.077-25.6-24.781-37.376-12.39-19.456 17.254-35.84 30.208-17.92 2.935 4.547 6.682 8.311 11.07 11.176l.143.088c-.819-2.048-1.69-4.608-2.56-6.656-.666-1.536-1.331-2.56-1.894-4.096-7.782-19.456 21.35-28.672 31.949-13.312 2.523 3.391 4.983 7.242 7.169 11.263l.255.513a54.346 54.346 0 0 1 .603-11.058l-.04.306z"/><glyph unicode="" glyph-name="visit" horiz-adv-x="1229" d="M1152 806.4h-25.6v51.2c0 56.554-45.846 102.4-102.4 102.4H102.4C45.846 960 0 914.154 0 857.6V38.4C0-18.154 45.846-64 102.4-64H1024c56.554 0 102.4 45.846 102.4 102.4v256h25.6c42.415 0 76.8 34.385 76.8 76.8v358.4c0 42.415-34.385 76.8-76.8 76.8zm-921.6 51.2c14.138 0 25.6-11.462 25.6-25.6s-11.462-25.6-25.6-25.6c-14.138 0-25.6 11.462-25.6 25.6 0 14.138 11.462 25.6 25.6 25.6zm-102.4 0c14.138 0 25.6-11.462 25.6-25.6s-11.462-25.6-25.6-25.6c-14.138 0-25.6 11.462-25.6 25.6 0 14.138 11.462 25.6 25.6 25.6zM102.4 38.4V704h489.472l-57.6-51.2H179.2c-14.138 0-25.6-11.462-25.6-25.6V473.6c0-14.138 11.462-25.6 25.6-25.6h347.802l51.2-51.2H179.2c-14.138 0-25.6-11.462-25.6-25.6v-256c0-14.138 11.462-25.6 25.6-25.6h512c14.138 0 25.6 11.462 25.6 25.6v179.712c2.048 0 4.096-.512 6.195-.512H768V115.2c0-14.138 11.462-25.6 25.6-25.6h153.6c14.138 0 25.6 11.462 25.6 25.6v179.2h51.2v-256H102.4zm1075.2 332.8c0-14.138-11.462-25.6-25.6-25.6H722.995c-14.087.14-26.83 5.775-36.213 14.862l-164.901 164.85c-6.107 6.145-9.882 14.613-9.882 23.963v.106-.005l-.001.271c0 9.889 4.367 18.758 11.277 24.784l.039.033L711.986 742.4c9.032 7.936 20.947 12.784 33.993 12.8h406.019c14.138 0 25.6-11.462 25.6-25.6V371.2z"/><glyph unicode="" glyph-name="context" horiz-adv-x="1230" d="M83.507 151.04V-43.52c.853-11.485 10.381-20.481 22.01-20.481l.222.001h154.323c11.66 0 21.222 8.98 22.147 20.401l.005.079v343.04L170.24 192c-22.53-22.564-52.618-37.575-86.142-40.912l-.591-.048zm275.559 153.6V-43.52c.879-11.49 10.418-20.481 22.058-20.481l.226.001h154.275c11.67 0 21.243 8.975 22.194 20.399l.005.081v204.8c-36.616.474-69.49 16.103-92.708 40.889l-.066.071zm275.609-122.88V-43.52c.879-11.49 10.418-20.481 22.058-20.481l.172.001H811.23c11.66 0 21.222 8.98 22.147 20.401l.005.079V371.2L656.691 202.24c-5.861-8.391-13.304-15.262-21.945-20.304l-.327-.176zm459.367 445.44L910.234 448V-43.52c.879-11.49 10.418-20.481 22.058-20.481l.226.001h154.275c11.67 0 21.243 8.975 22.194 20.399l.005.081v660.48c-4.457 2.908-8.283 6.295-11.559 10.163l-.063.077h-3.328zm126.208 322.56c-9.094 6.407-20.403 10.24-32.608 10.24H1183.591c-71.68-5.12-143.36-5.12-215.04-10.24a42.204 42.204 0 0 1-4.774.263 43.346 43.346 0 0 1-28.408-10.55l.056.047a56.986 56.986 0 0 1-7.691-9.987l-.142-.253c-2.443-4.771-3.875-10.409-3.875-16.38 0-12.189 5.965-22.984 15.135-29.626l.106-.073 17.971-15.36c12.39-15.36 25.037-25.6 37.683-40.96l-433.869-424.96-194.918 194.56c-11.914 9.571-27.22 15.361-43.878 15.361s-31.965-5.79-44.016-15.468l.137.107-259.635-256C7.194 329.39.233 313.988.233 296.961s6.961-32.429 18.193-43.514l.007-.006 11.622-10.24c10.571-12.558 26.299-20.482 43.878-20.482s33.307 7.924 43.807 20.395l.071.087 204.032 199.68 194.918-189.44c10.608-12.564 26.369-20.49 43.981-20.49s33.373 7.926 43.911 20.405l.07.085 489.472 476.16 55.398-51.2c7.496-8.26 17.781-13.87 29.358-15.336l.236-.024a23.207 23.207 0 0 1 2.641-.145 23.966 23.966 0 0 1 15.07 5.302l-.047-.036c4.291 1.777 7.792 3.493 11.177 5.392l-.527-.272c8.297 9.131 13.376 21.315 13.376 34.686 0 .406-.005.81-.014 1.214l.001-.06q3.072 69.12 6.605 138.24l3.277 66.56c.154 1.465.241 3.166.241 4.887a49.407 49.407 0 0 1-10.915 31.05l.075-.097z"/><glyph unicode="" glyph-name="announcement" horiz-adv-x="931" d="M651.217 803.607a27.26 27.26 0 0 0-.421-.003c-16.785 0-30.416 13.502-30.624 30.238v96.369c.927 16.424 14.472 29.392 31.046 29.392s30.118-12.967 31.042-29.31l.004-.082v-96.349c-.209-16.755-13.84-30.257-30.625-30.257a32.6 32.6 0 0 0-.443.003h.022zm137.496-23.738c-5.8-5.195-13.502-8.371-21.946-8.371s-16.146 3.176-21.977 8.398l.031-.028c-5.601 5.423-9.078 13.011-9.078 21.411s3.477 15.988 9.07 21.403l.008.008 73.169 70.749c5.701 5.407 13.424 8.733 21.923 8.733s16.222-3.326 21.937-8.746l-.014.013c5.625-5.412 9.119-13.003 9.119-21.411s-3.494-15.999-9.109-21.402l-.01-.009zm-19.317-90.298c.23 16.507 13.665 29.801 30.205 29.801.296 0 .59-.004.884-.013l-.043.001h99.421c.498.03 1.08.047 1.666.047 16.478 0 29.836-13.358 29.836-29.836s-13.358-29.836-29.836-29.836c-.586 0-1.168.017-1.746.05l.08-.004h-99.281a29.43 29.43 0 0 0-.98-.016c-16.542 0-29.978 13.296-30.205 29.784v.021zM514.979 89.6c16.789-16.012 27.229-38.554 27.229-63.535s-10.44-47.523-27.194-63.502l-.035-.033c-17.043-16.419-40.26-26.533-65.839-26.533s-48.795 10.114-65.868 26.561l.03-.028-97.745 94.487 163.468 96.349zM4.561 232.96l297.891 471.505L666.81 352.116 178.967 64.465c-4.468-2.92-9.938-4.656-15.815-4.656l-.354.002h.018a32.477 32.477 0 0 0-21.939 8.859l.016-.015L9.216 196.19C3.599 201.505.103 209.013.103 217.337a28.957 28.957 0 0 0 4.621 15.739l-.069-.115zm348.254 634.88c17.135 16.211 40.323 26.177 65.839 26.177s48.704-9.967 65.883-26.219l-.045.042 351.046-339.316c16.753-16.117 27.161-38.727 27.161-63.767s-10.407-47.65-27.132-63.74l-.029-.027c-17.161-16.15-40.341-26.073-65.839-26.073s-48.677 9.923-65.888 26.119l.049-.046-351.046 339.316c-16.753 16.117-27.161 38.727-27.161 63.767s10.407 47.65 27.132 63.74l.029.027z"/><glyph unicode="" glyph-name="audit" horiz-adv-x="983" d="M695.05 837.939H462.848V477.901H345.702c.091 2.1.143 4.564.143 7.04 0 95.508-77.425 172.933-172.933 172.933S-.021 580.449-.021 484.941c0-2.476.052-4.94.155-7.391l-.012.35v-59.802H462.97V58.06h232.325V-64.001h287.744v301.875h-287.99V117.861H520.191v300.237h174.735V298.085h288.113v299.827h-287.99V477.899H520.191v300.237h174.735V658.123h288.113v301.875h-287.99V837.937zm77.824-698.777l37.233-38.912 94.863 99.123 40.714-42.598L810.106 15.463l-77.824 81.51zm0 360.038l37.233-38.912 94.863 99.123 40.714-42.598-135.578-141.312-77.824 81.101zm0 360.038l37.233-38.912 95.109 98.714 40.714-42.189-135.578-141.312-77.824 81.101zm-513.802-51.2c-2.008-46.16-39.918-82.821-86.39-82.821-47.754 0-86.467 38.712-86.467 86.467s38.712 86.467 86.467 86.467h.005c48.012-1.069 86.524-40.243 86.524-88.412 0-.598-.006-1.194-.018-1.789l.001.089z"/><glyph unicode="" glyph-name="browser" horiz-adv-x="1178" d="M0 960V721.92h1177.6V960H0zm207.155-153.088H138.24v68.096h69.069v-68.096zm138.24 0h-69.069v68.096h69.069v-68.096zm138.24 0h-69.069v68.096h69.069v-68.096zm312.576-627.2c62.825 1.037 113.357 52.21 113.357 115.185 0 63.623-51.577 115.2-115.2 115.2-63.618 0-115.192-51.568-115.2-115.185v-.001c.608-63.753 52.431-115.201 116.27-115.201l.545.001h-.028zM0-64h1177.6v717.824H0V-64zm552.397 392.704h60.774c5.077 26.447 15.272 49.871 29.566 70.206l-.382-.574-43.008 42.496 48.794 47.616 43.008-41.984c20.025 13.623 43.662 23.635 69.129 28.487l1.169.185v59.904h69.018v-59.904c26.654-5.038 50.308-15.05 71.005-29.092l-.657.42 42.957 41.984 48.794-47.616-43.008-42.496c13.938-19.753 24.137-43.182 29.004-68.508l.18-1.124h60.621V261.12h-60.774c-5.047-26.45-15.246-49.879-29.563-70.199l.379.567 43.008-41.984-48.794-48.128-42.957 42.496c-20.026-13.779-43.666-23.956-69.154-28.987l-1.195-.197V55.296h-69.018v59.392c-26.665 5.229-50.287 15.405-70.934 29.598l.637-.414-43.008-42.496-48.794 48.128 43.008 41.984c-13.891 19.767-24.082 43.188-28.999 68.492l-.185 1.14h-60.774v67.584zM138.086 464.896h345.293V396.8H138.24v68.096zm0-136.192h345.293V261.12H138.24v67.584zm0-135.68h345.293v-68.096H138.24v68.096z"/><glyph unicode="" glyph-name="hello" horiz-adv-x="1363" d="M1079.09 329.584C834.875 583.454 949.599 464.186 818.404 601.06c-15.129 14.793-35.852 23.921-58.706 23.921-12.039 0-23.486-2.533-33.838-7.094l.538.212c-36.348-16.47-83.488-39.188-118.7-56.226-22.856-14.548-50.033-24.465-79.217-27.75l-.863-.079c-75.607 1.486-136.328 63.127-136.328 138.95 0 .868.008 1.733.024 2.597l-.002-.13c-.003.317-.004.691-.004 1.065 0 49.465 25.295 93.022 63.655 118.442l.527.328c54.522 39.188 179.47 108.477 179.47 108.477-28.387 30.878-68.972 50.16-114.061 50.16-2.631 0-5.246-.066-7.844-.195l.365.015c-83.488 0-257.846-118.7-257.846-118.7-18.258-10.185-40.054-16.182-63.251-16.182-20.564 0-40.027 4.713-57.369 13.118l.784-.343L0 881.057V390.355s38.62-11.927 73.832-26.693c8.34 24.578 21.354 45.646 38.107 63.099l-.055-.057c26.521 26.543 63.171 42.961 103.655 42.961 39.917 0 76.106-15.961 102.533-41.849l-.025.024c15.268-16.401 26.55-36.716 32.176-59.27l.197-.932c22.205-7.19 41.118-19.322 56.173-35.156l.053-.056c15.156-16.271 26.416-36.373 32.166-58.688l.207-.946c22.036-7.413 40.755-19.723 55.581-35.697l.077-.084c16.643-17.877 28.778-40.169 34.46-64.924l.185-.957c23.153-6.9 42.898-19.301 58.441-35.72l.057-.06c23.494-26.152 37.862-60.917 37.862-99.038 0-8.751-.757-17.326-2.21-25.661l.128.888c.568-1.136 19.878-23.286 31.805-35.78 10.727-11.047 25.719-17.902 42.312-17.902s31.585 6.855 42.298 17.888l.014.014c10.82 11.567 17.465 27.157 17.465 44.299s-6.645 32.733-17.499 44.336l.034-.037a523.95 523.95 0 0 0-75.947 95.998l-1.293 2.256c42.087-34.022 79.607-70.102 113.832-109.142l.892-1.038c10.727-11.047 25.719-17.902 42.312-17.902s31.585 6.855 42.298 17.888l.014.014c10.821 11.462 17.472 26.962 17.472 44.016s-6.651 32.553-17.501 44.047l.029-.031-7.951 7.951c-36.422 31.183-68.379 65.844-95.926 103.907l-1.192 1.731c51.83-36.575 97.312-75.388 138.974-117.956l.172-.176c10.4-10.155 24.637-16.419 40.338-16.419 16.541 0 31.458 6.953 41.988 18.096l.026.027c10.405 11.312 16.783 26.47 16.783 43.118a63.512 63.512 0 0 1-14.04 39.926l.096-.124a714.433 714.433 0 0 0-90.283 114.651l-1.724 2.913c39.9-28.916 74.727-60.858 105.561-96.36l.644-.758c10.614-11.283 25.642-18.31 42.312-18.31s31.697 7.027 42.284 18.28l.028.03c10.821 11.462 17.472 26.962 17.472 44.016s-6.651 32.553-17.501 44.047l.029-.031a1.984 1.984 0 0 1-1.125.567l-.011.001zM462.305 106.383c3.955 9.245 6.254 20.003 6.254 31.299 0 20.441-7.531 39.123-19.969 53.424l.084-.099c-13.509 13.584-32.213 21.991-52.879 21.991a74.612 74.612 0 0 1-20.343-2.809l.525.127c2.392 7.189 3.772 15.466 3.772 24.065 0 19.993-7.459 38.244-19.746 52.122l.072-.083c-13.509 13.584-32.213 21.991-52.879 21.991a74.612 74.612 0 0 1-20.343-2.809l.525.127c2.392 7.189 3.772 15.466 3.772 24.065 0 19.993-7.459 38.244-19.746 52.122l.072-.083c-14.338 14.096-34.017 22.798-55.728 22.798-23.372 0-44.388-10.084-58.936-26.138l-.06-.067c-23.051-19.303-37.605-48.093-37.605-80.284 0-18.241 4.674-35.39 12.888-50.316l-.273.541c29.533-35.212 64.177-13.631 90.303-7.383C213.258 228.155 208 212.29 208 195.197c0-15.613 4.387-30.201 11.996-42.6l-.203.355c27.261-35.212 64.745-13.631 90.871-7.383-10.674-11.784-17.207-27.493-17.207-44.727 0-36.856 29.877-66.733 66.733-66.733 17.517 0 33.457 6.749 45.363 17.789l-.043-.039c-10.791-29.533-34.077-60.77-4.544-95.982s99.39-19.31 133.466 14.199c16.823 15.764 27.305 38.12 27.305 62.925 0 21.33-7.751 40.849-20.59 55.895l.1-.12c-13.563 13.703-32.375 22.188-53.169 22.188a74.643 74.643 0 0 1-26.291-4.751l.516.17zm686.642 678.123c-4.773-1.219-10.252-1.919-15.895-1.919-14.727 0-28.342 4.767-39.384 12.841l.189-.132s-65.313 58.498-138.578 122.676c-59.066 52.251-90.303 49.979-134.034 26.125-70.993-39.188-241.943-139.146-323.159-190.261-29.372-13.681-49.674-42.36-51.109-75.924l-.006-.18c2.047-43.63 37.918-78.228 81.869-78.228 15.249 0 29.525 4.165 41.753 11.419l-.379-.208c35.212 18.174 120.972 64.177 178.334 95.414 13.266 9.284 29.739 14.835 47.508 14.835 20.718 0 39.674-7.547 54.268-20.041l-.114.095s226.041-233.992 289.651-297.602c20.562-16.422 46.937-26.351 75.631-26.351 14.627 0 28.652 2.58 41.643 7.311l-.846-.269c18.742 2.272 106.773 20.446 106.773 20.446v428.796s-130.627-30.669-214.114-48.843z"/><glyph unicode="" glyph-name="items" horiz-adv-x="1280" d="M136.96 587.52c-.567.009-1.236.014-1.906.014-37.398 0-71.189-15.444-95.343-40.302l-.031-.032C15.136 522.266-.018 488.026-.018 450.247c0-.79.007-1.579.02-2.366L0 448a131.26 131.26 0 0 1-.022-2.448c0-37.833 15.426-72.063 40.332-96.742l.01-.01c23.803-24.877 57.269-40.34 94.346-40.34.807 0 1.612.007 2.415.022l-.121-.002a128.2 128.2 0 0 1 2.334-.021c37.265 0 70.921 15.454 94.909 40.302l.037.039c24.935 25.592 40.314 60.6 40.314 99.2s-15.379 73.608-40.343 99.231l.03-.031c-24.025 24.887-57.681 40.341-94.946 40.341-.821 0-1.639-.007-2.456-.022l.123.002zm0 93.44a128.2 128.2 0 0 1 2.334-.021c37.265 0 70.921 15.454 94.909 40.302l.037.039c24.916 24.69 40.342 58.92 40.342 96.752 0 .861-.008 1.719-.024 2.576l.002-.128c.014.721.022 1.571.022 2.423 0 37.639-15.436 71.673-40.322 96.117l-.02.02c-23.779 25.257-57.435 40.984-94.764 40.984-.885 0-1.768-.009-2.648-.026l.132.002c-.732.015-1.595.024-2.46.024-37.147 0-70.618-15.737-94.11-40.908l-.07-.075C15.414 894.577-.022 860.544-.022 822.904c0-.852.008-1.702.024-2.551L0 820.48a131.26 131.26 0 0 1-.022-2.448c0-37.833 15.426-72.063 40.332-96.742l.01-.01c23.803-24.877 57.269-40.34 94.346-40.34.807 0 1.612.007 2.415.022l-.121-.002zm0-465.92c-.683.013-1.488.02-2.294.02-37.077 0-70.543-15.463-94.3-40.292l-.046-.048C15.404 150.03-.022 115.8-.022 77.968c0-.861.008-1.719.024-2.576L0 75.52c-.014-.721-.022-1.571-.022-2.423 0-37.639 15.436-71.673 40.322-96.117l.02-.02c23.562-25.246 57.033-40.984 94.18-40.984.865 0 1.728.009 2.589.026L136.96-64a121.88 121.88 0 0 1 2.516-.024c37.329 0 70.985 15.728 94.702 40.918l.062.066c24.906 24.464 40.342 58.497 40.342 96.137 0 .852-.008 1.702-.024 2.551l.002-.127c.014.728.022 1.587.022 2.448 0 37.833-15.426 72.063-40.332 96.742l-.01.01c-24.025 24.887-57.681 40.341-94.946 40.341-.821 0-1.639-.007-2.456-.022l.123.002zm1136 691.2c-3.629 4.329-9.039 7.061-15.087 7.061-.321 0-.64-.008-.958-.023l.045.002H388.48c-.273.014-.592.021-.913.021-6.048 0-11.458-2.733-15.062-7.031l-.025-.03c-4.322-3.989-7.024-9.677-7.04-15.997V750.72a23.166 23.166 0 0 1 7.035-16.635l.005-.005c3.989-4.322 9.677-7.024 15.997-7.04h868.483a21.764 21.764 0 0 1 15.986 7.025l.014.015c4.34 4.222 7.034 10.116 7.04 16.639V890.24a21.764 21.764 0 0 1-7.025 15.986l-.015.014zm-16-365.44H388.48a21.183 21.183 0 0 1-15.996-6.395l-.004-.004a24.306 24.306 0 0 1-7.04-16.614V378.241a24.321 24.321 0 0 1 7.042-16.642l-.002.002a21.188 21.188 0 0 1 16.039-6.399l-.039-.001h868.48a21.183 21.183 0 0 1 15.996 6.395l.004.004a24.306 24.306 0 0 1 7.04 16.614V517.76a24.321 24.321 0 0 1-7.042 16.642l.002-.002a21.188 21.188 0 0 1-16.039 6.399l.039.001zm0-371.84H388.48a21.764 21.764 0 0 1-15.986-7.025l-.014-.015c-4.34-4.222-7.034-10.116-7.04-16.639V5.76a21.764 21.764 0 0 1 7.025-15.986l.015-.014c3.629-4.329 9.039-7.061 15.087-7.061.321 0 .64.008.958.023l-.045-.002h868.48c.273-.014.592-.021.913-.021 6.048 0 11.458 2.733 15.062 7.031l.025.03c4.322 3.989 7.024 9.677 7.04 15.997V145.28a23.166 23.166 0 0 1-7.035 16.635l-.005.005c-3.989 4.322-9.677 7.024-15.997 7.04h-.003z"/><glyph unicode="" glyph-name="map" horiz-adv-x="1075" d="M867.789 431.616c-10.299 1.542-22.254 2.469-34.409 2.559l-.1.001c-103.364-.853-191.204-66.386-225.096-158.068l-.542-1.676-232.192 61.952c.461 5.12.768 9.728.768 14.848v.368c0 40.169-14.12 77.04-37.668 105.92l.24-.304L490.496 640c13.613-7.371 29.793-11.724 46.986-11.776h.016c1.16-.043 2.523-.068 3.891-.068 61.531 0 111.411 49.88 111.411 111.411s-49.88 111.411-111.411 111.411c-61.435 0-111.256-49.725-111.411-111.124v-.015a93.99 93.99 0 0 1-.004-.954c0-23.556 7.297-45.408 19.754-63.418l-.243.372-151.603-182.272c-23.608 14.75-52.274 23.512-82.984 23.552h-8.049l-50.637 234.496c34.903 19.34 58.14 55.957 58.14 98.002 0 18.416-4.458 35.79-12.353 51.103l.293-.625c-17.413 35.69-53.432 59.843-95.091 59.843-18.033 0-35.01-4.526-49.855-12.504l.563.276c-34.903-19.34-58.14-55.957-58.14-98.002 0-18.416 4.458-35.79 12.353-51.103l-.293.625c17.057-34.678 51.541-58.442 91.716-59.899l.188-.005 50.586-234.496C94.351 478.426 53.242 419.52 53.242 351.012c0-22.423 4.404-43.817 12.394-63.365l-.405 1.119c23.307-61.029 81.369-103.589 149.371-103.589 21.837 0 42.648 4.388 61.601 12.332l-1.052-.391c39.186 16.603 69.821 47.006 86.328 84.97l.405 1.046L593.82 220.67c-1.806-11.243-2.837-24.205-2.837-37.408 0-122.714 89.124-224.613 206.174-244.499l1.463-.206c9.783-1.395 21.082-2.192 32.567-2.192 123.688 0 225.796 92.393 241.073 211.928l.126 1.208c1.813 11.266 2.849 24.254 2.849 37.483 0 122.636-89.028 224.478-205.979 244.422l-1.466.207z"/><glyph unicode="" glyph-name="phone" horiz-adv-x="614" d="M534.989 960.512H79.309c-.618.018-1.345.028-2.075.028-41.705 0-75.646-33.243-76.771-74.676l-.002-.104V11.264c1.127-41.538 35.068-74.78 76.773-74.78.729 0 1.457.01 2.181.03l-.107-.002h455.68a73.461 73.461 0 0 1 2.075-.028c41.705 0 75.646 33.243 76.771 74.676l.002.104V885.76c-1.127 41.538-35.068 74.78-76.773 74.78-.729 0-1.457-.01-2.181-.03l.107.002zM194.56 915.456h225.28c6.222-2.366 10.563-8.28 10.563-15.209 0-1.141-.118-2.254-.342-3.329l.018.105c.175-.885.274-1.903.274-2.944 0-6.854-4.33-12.696-10.404-14.941l-.11-.036h-225.28c-6.186 2.261-10.522 8.096-10.522 14.943 0 1.053.103 2.082.298 3.078l-.016-.101c-.21.979-.331 2.103-.331 3.256 0 6.922 4.347 12.829 10.46 15.139l.111.037zM307.2 10.24c-25.201 1.397-45.107 22.173-45.107 47.598 0 26.326 21.341 47.667 47.667 47.667 26.32 0 47.657-21.331 47.667-47.649v-.001c-.875-26.488-22.558-47.627-49.178-47.627-.369 0-.737.004-1.104.012l.055-.001zm247.654 162.816H59.443V834.56h495.411V173.056z"/><glyph unicode="" glyph-name="quantity" horiz-adv-x="757" d="M533.459 382.553c-122.702 35.172-244.87 69.899-367.482 105.071-7.079-28.049-14.069-55.207-21.148-83.256q184.008-52.758 367.527-105.071c7.123 28.049 14.069 55.652 21.103 83.256zm47.995 98.838q-164.285 102.845-327.769 205.69c-13.891-24.932-27.514-49.864-41.316-74.797q163.795-102.4 327.814-205.245c13.846 24.932 27.559 49.864 41.272 74.351zm-72.971-211.478q-189.752 18.699-378.925 36.953c-2.493-28.939-5.031-56.988-7.524-85.927 126.531-12.466 252.616-24.487 378.969-36.953 2.538 28.939 4.986 57.433 7.48 85.927zM380.216 827.325q107.342-166.957 214.417-333.913c22.617 16.028 44.833 32.501 67.183 48.529-71.68 111.75-143.004 222.609-214.461 333.913-22.483-16.028-44.611-32.056-67.139-48.529zm311.118 133.12l-80.139-14.692q32.501-199.68 65.091-398.47c27.025 4.897 53.426 9.795 80.139 14.692q-32.545 199.68-65.091 398.47zM499 159.054H119.096V73.127H499v85.927zM563.912 4.118H64.601V356.73H0V-64h628.38v420.73h-64.512q.134-176.306.045-352.612z"/></font>
</defs>
</svg>
